M48
; DRILL file {KiCad 8.0.5-8.0.5-0~ubuntu22.04.1} date 2024-09-18T21:08:23+0200
; FORMAT={-:-/ absolute / inch / decimal}
; #@! TF.CreationDate,2024-09-18T21:08:23+02:00
; #@! TF.GenerationSoftware,Kicad,Pcbnew,8.0.5-8.0.5-0~ubuntu22.04.1
; #@! TF.FileFunction,Plated,1,4,PTH
FMAT,2
INCH
; #@! TA.AperFunction,Plated,PTH,ViaDrill
T1C0.0118
; #@! TA.AperFunction,Plated,PTH,ComponentDrill
T2C0.0197
; #@! TA.AperFunction,Plated,PTH,ComponentDrill
T3C0.0354
; #@! TA.AperFunction,Plated,PTH,ComponentDrill
T4C0.0400
; #@! TA.AperFunction,Plated,PTH,ComponentDrill
T5C0.0402
; #@! TA.AperFunction,Plated,PTH,ComponentDrill
T6C0.0630
; #@! TA.AperFunction,Plated,PTH,ComponentDrill
T7C0.1260
%
G90
G05
T1
X6.9291Y-4.6024
X6.9606Y-4.6024
X7.0472Y-4.9843
X7.0669Y-4.7835
X7.0906Y-4.2441
X7.0906Y-4.2992
X7.1102Y-4.6772
X7.1142Y-4.7126
X7.1155Y-4.7444
X7.1249Y-4.7781
X7.1339Y-5.6772
X7.1378Y-5.6457
X7.1436Y-3.6082
X7.1457Y-3.5748
X7.1496Y-4.2441
X7.1496Y-4.2992
X7.1535Y-4.8225
X7.1929Y-4.8465
X7.1929Y-5.0394
X7.2087Y-4.2441
X7.2087Y-4.2992
X7.2126Y-3.9843
X7.2126Y-4.0906
X7.252Y-4.8661
X7.2677Y-3.4488
X7.2717Y-3.4173
X7.2756Y-5.0394
X7.3071Y-5.2677
X7.3071Y-5.5748
X7.311Y-4.4331
X7.3228Y-3.8189
X7.3228Y-3.8976
X7.3502Y-5.1394
X7.3504Y-5.0211
X7.3524Y-4.9413
X7.3524Y-4.8228
X7.3524Y-4.7437
X7.3583Y-5.2598
X7.3622Y-3.8189
X7.3642Y-4.4331
X7.374Y-3.1063
X7.3858Y-3.1614
X7.3883Y-5.1403
X7.3917Y-4.9413
X7.4055Y-4.2283
X7.4055Y-4.2743
X7.4055Y-4.3202
X7.4055Y-4.3661
X7.4173Y-4.4331
X7.4213Y-5.2598
X7.432Y-5.1392
X7.4373Y-4.8913
X7.4567Y-4.0866
X7.4567Y-4.8504
X7.4606Y-5.3031
X7.4701Y-5.1378
X7.4711Y-4.9014
X7.4726Y-5.0226
X7.4756Y-5.2425
X7.4764Y-3.2736
X7.4803Y-4.9685
X7.4961Y-4.7953
X7.506Y-4.9381
X7.506Y-5.2343
X7.5079Y-2.6772
X7.5098Y-5.1374
X7.5111Y-5.0992
X7.5118Y-4.5906
X7.5124Y-5.1737
X7.5419Y-4.6998
X7.5512Y-3.8189
X7.5551Y-3.4449
X7.5591Y-3.8976
X7.5591Y-4.0866
X7.5591Y-4.2283
X7.5591Y-4.3228
X7.5591Y-4.8701
X7.5591Y-5.2559
X7.563Y-4.0433
X7.563Y-5.5827
X7.5777Y-3.4847
X7.5838Y-5.0232
X7.5856Y-4.7419
X7.5866Y-3.4409
X7.589Y-5.1378
X7.589Y-5.1772
X7.5903Y-4.824
X7.5906Y-4.3228
X7.5943Y-3.5235
X7.5984Y-3.8189
X7.5984Y-4.9567
X7.6063Y-4.2283
X7.6142Y-4.3465
X7.6142Y-4.9252
X7.6142Y-5.5748
X7.6267Y-5.0992
X7.628Y-3.064
X7.6285Y-5.2205
X7.6286Y-5.0588
X7.6378Y-4.9882
X7.6457Y-5.5748
X7.6471Y-3.4946
X7.6535Y-4.9567
X7.6575Y-4.874
X7.6582Y-5.0254
X7.6685Y-5.061
X7.676Y-5.4606
X7.6772Y-5.5748
X7.689Y-4.0866
X7.6983Y-4.622
X7.7063Y-4.9409
X7.7126Y-5.5748
X7.7165Y-4.3228
X7.7244Y-3.3031
X7.7323Y-3.3425
X7.7323Y-5.2756
X7.7461Y-4.9012
X7.748Y-2.4222
X7.748Y-4.3228
X7.7511Y-5.1415
X7.752Y-5.0276
X7.7539Y-3.435
X7.7795Y-4.3228
X7.7828Y-4.78
X7.7933Y-3.2953
X7.7992Y-5.4606
X7.815Y-4.3228
X7.815Y-4.5472
X7.815Y-5.3819
X7.8169Y-3.6083
X7.8228Y-3.0276
X7.8307Y-5.0472
X7.8386Y-4.626
X7.8425Y-2.4222
X7.8465Y-4.3228
X7.8465Y-5.2606
X7.8504Y-2.6772
X7.8543Y-4.5039
X7.8543Y-4.5472
X7.874Y-4.2913
X7.874Y-5.315
X7.9173Y-4.7913
X7.9173Y-5.4252
X7.9213Y-4.5315
X7.9331Y-4.1929
X7.935Y-3.4528
X7.937Y-3.3839
X7.9449Y-4.3661
X7.9449Y-4.4331
X7.9449Y-4.6339
X7.9528Y-3.1654
X7.9528Y-5.315
X7.9646Y-4.2717
X7.9685Y-4.811
X7.9961Y-4.16
X7.998Y-3.3858
X8.0Y-3.4508
X8.0118Y-4.2717
X8.0157Y-5.4291
X8.0222Y-3.5916
X8.0315Y-5.315
X8.0531Y-3.628
X8.0669Y-4.3661
X8.0669Y-4.4331
X8.0945Y-4.2795
X8.1063Y-3.6417
X8.1102Y-3.2776
X8.1161Y-3.2421
X8.189Y-3.2362
X8.189Y-3.9134
X8.189Y-4.3661
X8.189Y-4.4331
X8.2126Y-4.5236
X8.2244Y-3.6319
X8.311Y-5.0472
X8.315Y-4.8976
X8.3189Y-4.6732
X8.3189Y-5.2584
X8.3268Y-4.0984
X8.3569Y-5.3346
X8.3701Y-4.2126
X8.3898Y-4.3661
X8.3976Y-4.1378
X8.4344Y-4.3031
X8.4606Y-5.0118
X8.4606Y-5.1654
X8.4646Y-5.3189
X8.4685Y-5.4764
X8.4724Y-4.7874
X8.4803Y-4.6378
X8.5039Y-4.5709
X8.5472Y-4.311
X8.5472Y-4.7165
X8.5591Y-3.7126
X8.5669Y-4.7874
X8.5709Y-5.1299
X8.5734Y-5.4528
X8.5827Y-4.4961
X8.6142Y-4.3096
X8.6929Y-5.1614
X8.6929Y-5.2795
X8.6969Y-4.8031
X8.6969Y-4.9331
X8.7047Y-4.5118
X8.7047Y-4.6969
X8.8189Y-3.8858
X8.8268Y-4.5591
X8.8543Y-4.2165
X8.9291Y-4.7402
X8.937Y-3.622
X8.937Y-3.6614
X8.9488Y-5.3898
X8.9528Y-4.4449
X8.9528Y-5.5157
X8.9646Y-5.0591
X8.9764Y-3.6614
X8.9835Y-4.4173
X8.9882Y-4.5787
X8.9961Y-4.7323
X9.0Y-4.8661
X9.0157Y-3.6614
X9.1024Y-6.8819
X9.1417Y-6.8819
X9.1811Y-6.8819
X9.2205Y-6.8858
X9.5945Y-3.6535
X9.6063Y-3.4961
X9.6575Y-3.6929
X9.6732Y-6.437
X9.685Y-3.4646
X9.685Y-3.5748
X9.7165Y-6.4409
X9.7244Y-3.3622
X9.7559Y-6.4409
X9.7874Y-6.4409
X9.9213Y-3.248
X9.9252Y-4.315
X9.9291Y-4.4173
X10.0787Y-3.248
X10.0984Y-4.315
X10.0984Y-4.4094
X10.0984Y-4.5118
X10.2402Y-3.5276
X10.248Y-3.4331
X10.248Y-3.6339
X10.2598Y-3.3425
T3
X7.471Y-7.6772
X7.521Y-7.5772
X7.571Y-7.6772
X7.621Y-7.5772
X7.671Y-7.6772
X7.721Y-7.5772
X7.771Y-7.6772
X7.821Y-7.5772
X8.2792Y-7.6772
X8.3292Y-7.5772
X8.3792Y-7.6772
X8.4292Y-7.5772
X8.4792Y-7.6772
X8.5292Y-7.5772
X8.5792Y-7.6772
X8.6292Y-7.5772
X9.0874Y-7.6772
X9.1374Y-7.5772
X9.1874Y-7.6772
X9.2374Y-7.5772
X9.2874Y-7.6772
X9.3374Y-7.5772
X9.3874Y-7.6772
X9.4374Y-7.5772
X9.8956Y-7.6772
X9.9456Y-7.5772
X9.9956Y-7.6772
X10.0456Y-7.5772
X10.0956Y-7.6772
X10.1456Y-7.5772
X10.1956Y-7.6772
X10.2456Y-7.5772
T4
X8.6283Y-3.2614
X8.6283Y-3.3614
X8.6283Y-3.4614
X8.6283Y-3.5614
X8.6283Y-3.6614
X8.6283Y-3.7614
X8.6283Y-3.8614
X8.6283Y-3.9614
X8.6283Y-4.0614
X8.6283Y-4.1614
X8.6283Y-5.7614
X8.6283Y-5.8614
X8.6283Y-5.9614
X8.6283Y-6.0614
X8.6283Y-6.1614
X8.6283Y-6.2614
X8.6283Y-6.3614
X8.6283Y-6.4614
X8.6283Y-6.5614
X8.6283Y-6.6614
X8.7283Y-3.2614
X8.7283Y-3.3614
X8.7283Y-3.4614
X8.7283Y-3.5614
X8.7283Y-3.6614
X8.7283Y-3.7614
X8.7283Y-3.8614
X8.7283Y-3.9614
X8.7283Y-4.0614
X8.7283Y-4.1614
X8.7283Y-5.7614
X8.7283Y-5.8614
X8.7283Y-5.9614
X8.7283Y-6.0614
X8.7283Y-6.1614
X8.7283Y-6.2614
X8.7283Y-6.3614
X8.7283Y-6.4614
X8.7283Y-6.5614
X8.7283Y-6.6614
X9.2354Y-3.3496
X9.2354Y-3.4496
X9.2354Y-3.5496
X9.2354Y-3.6496
X9.2354Y-3.7496
X9.2354Y-3.8496
X9.2354Y-3.9496
X9.2354Y-4.0496
X9.2354Y-4.1496
X9.2354Y-4.2496
X9.2354Y-4.3496
X9.2354Y-4.4496
X9.2354Y-4.5496
X9.2354Y-4.6496
X10.0354Y-3.3496
X10.0354Y-3.4496
X10.0354Y-3.5496
X10.0354Y-3.6496
X10.0354Y-3.7496
X10.0354Y-3.8496
X10.0354Y-3.9496
X10.0354Y-4.0496
X10.0354Y-4.1496
X10.0354Y-4.2496
X10.0354Y-4.3496
X10.0354Y-4.4496
X10.0354Y-4.5496
X10.0354Y-4.6496
X10.3283Y-3.2614
X10.3283Y-3.3614
X10.3283Y-3.4614
X10.3283Y-3.5614
X10.3283Y-3.6614
X10.3283Y-3.7614
X10.3283Y-3.8614
X10.3283Y-3.9614
X10.3283Y-4.0614
X10.3283Y-4.1614
X10.3283Y-5.7614
X10.3283Y-5.8614
X10.3283Y-5.9614
X10.3283Y-6.0614
X10.3283Y-6.1614
X10.3283Y-6.2614
X10.3283Y-6.3614
X10.3283Y-6.4614
X10.3283Y-6.5614
X10.3283Y-6.6614
X10.4283Y-3.2614
X10.4283Y-3.3614
X10.4283Y-3.4614
X10.4283Y-3.5614
X10.4283Y-3.6614
X10.4283Y-3.7614
X10.4283Y-3.8614
X10.4283Y-3.9614
X10.4283Y-4.0614
X10.4283Y-4.1614
X10.4283Y-5.7614
X10.4283Y-5.8614
X10.4283Y-5.9614
X10.4283Y-6.0614
X10.4283Y-6.1614
X10.4283Y-6.2614
X10.4283Y-6.3614
X10.4283Y-6.4614
X10.4283Y-6.5614
X10.4283Y-6.6614
T5
X9.115Y-2.8689
X9.115Y-2.9689
X9.115Y-3.0689
X9.115Y-3.1689
X9.115Y-3.2689
X9.115Y-3.3689
X9.115Y-3.4689
X9.115Y-3.5689
X9.115Y-3.6689
X9.115Y-3.7689
X9.115Y-3.8689
X9.115Y-3.9689
X9.115Y-4.0689
X9.115Y-4.1689
X9.115Y-4.2689
X9.115Y-4.3689
X9.115Y-4.4689
X9.115Y-4.5689
X9.115Y-4.6689
X9.115Y-4.7689
X9.815Y-2.8689
X9.815Y-2.9689
X9.815Y-3.0689
X9.815Y-3.1689
X9.815Y-3.2689
X9.815Y-3.3689
X9.815Y-3.4689
X9.815Y-3.5689
X9.815Y-3.6689
X9.815Y-3.7689
X9.815Y-3.8689
X9.815Y-3.9689
X9.815Y-4.0689
X9.815Y-4.1689
X9.815Y-4.2689
X9.815Y-4.3689
X9.815Y-4.4689
X9.815Y-4.5689
X9.815Y-4.6689
X9.815Y-4.7689
T6
X7.3401Y-8.0472
X7.9519Y-8.0472
X8.1483Y-8.0472
X8.7601Y-8.0472
X8.9565Y-8.0472
X9.5683Y-8.0472
X9.7647Y-8.0472
X10.3765Y-8.0472
T7
X7.0866Y-2.5394
X7.0866Y-8.0709
X10.6496Y-2.5394
X10.6496Y-8.0709
T2
G00X7.6654Y-2.4085
M15
G01X7.6654Y-2.436
M16
G05
G00X7.9252Y-2.4085
M15
G01X7.9252Y-2.436
M16
G05
M30
