%TF.GenerationSoftware,KiCad,Pcbnew,8.0.5-8.0.5-0~ubuntu22.04.1*%
%TF.CreationDate,2024-09-18T21:07:57+02:00*%
%TF.ProjectId,ohsim_launchpad,6f687369-6d5f-46c6-9175-6e6368706164,rev?*%
%TF.SameCoordinates,Original*%
%TF.FileFunction,Paste,Bot*%
%TF.FilePolarity,Positive*%
%FSLAX46Y46*%
G04 Gerber Fmt 4.6, Leading zero omitted, Abs format (unit mm)*
G04 Created by KiCad (PCBNEW 8.0.5-8.0.5-0~ubuntu22.04.1) date 2024-09-18 21:07:57*
%MOMM*%
%LPD*%
G01*
G04 APERTURE LIST*
G04 Aperture macros list*
%AMRoundRect*
0 Rectangle with rounded corners*
0 $1 Rounding radius*
0 $2 $3 $4 $5 $6 $7 $8 $9 X,Y pos of 4 corners*
0 Add a 4 corners polygon primitive as box body*
4,1,4,$2,$3,$4,$5,$6,$7,$8,$9,$2,$3,0*
0 Add four circle primitives for the rounded corners*
1,1,$1+$1,$2,$3*
1,1,$1+$1,$4,$5*
1,1,$1+$1,$6,$7*
1,1,$1+$1,$8,$9*
0 Add four rect primitives between the rounded corners*
20,1,$1+$1,$2,$3,$4,$5,0*
20,1,$1+$1,$4,$5,$6,$7,0*
20,1,$1+$1,$6,$7,$8,$9,0*
20,1,$1+$1,$8,$9,$2,$3,0*%
G04 Aperture macros list end*
%ADD10RoundRect,0.200000X-0.200000X-0.275000X0.200000X-0.275000X0.200000X0.275000X-0.200000X0.275000X0*%
%ADD11R,1.200000X0.700000*%
%ADD12R,0.800000X1.000000*%
%ADD13R,1.200000X1.000000*%
%ADD14R,2.800000X1.000000*%
%ADD15R,1.900000X1.300000*%
%ADD16RoundRect,0.140000X-0.140000X-0.170000X0.140000X-0.170000X0.140000X0.170000X-0.140000X0.170000X0*%
%ADD17RoundRect,0.250000X0.250000X0.475000X-0.250000X0.475000X-0.250000X-0.475000X0.250000X-0.475000X0*%
G04 APERTURE END LIST*
D10*
%TO.C,R68*%
X187675000Y-88100000D03*
X189325000Y-88100000D03*
%TD*%
D11*
%TO.C,J7*%
X191700000Y-76350000D03*
X191700000Y-77450000D03*
X191700000Y-78550000D03*
X191700000Y-79650000D03*
X191700000Y-80750000D03*
X191700000Y-81850000D03*
X191700000Y-82950000D03*
X191700000Y-84050000D03*
X191700000Y-85000000D03*
D12*
X181200000Y-85950000D03*
D13*
X187400000Y-85950000D03*
D14*
X177050000Y-85950000D03*
D13*
X191700000Y-74800000D03*
D15*
X176600000Y-72450000D03*
%TD*%
D16*
%TO.C,C41*%
X190770000Y-130450000D03*
X191730000Y-130450000D03*
%TD*%
D17*
%TO.C,C19*%
X188650000Y-120400000D03*
X186750000Y-120400000D03*
%TD*%
D16*
%TO.C,C44*%
X192570000Y-127500000D03*
X193530000Y-127500000D03*
%TD*%
D17*
%TO.C,C22*%
X188650000Y-122500000D03*
X186750000Y-122500000D03*
%TD*%
D16*
%TO.C,C11*%
X186720000Y-125600000D03*
X187680000Y-125600000D03*
%TD*%
%TO.C,C21*%
X196770000Y-124450000D03*
X197730000Y-124450000D03*
%TD*%
%TO.C,C43*%
X196920000Y-130500000D03*
X197880000Y-130500000D03*
%TD*%
%TO.C,C13*%
X186670000Y-127500000D03*
X187630000Y-127500000D03*
%TD*%
%TO.C,C34*%
X194570000Y-125450000D03*
X195530000Y-125450000D03*
%TD*%
%TO.C,C36*%
X192820000Y-122500000D03*
X193780000Y-122500000D03*
%TD*%
%TO.C,C42*%
X189770000Y-124500000D03*
X190730000Y-124500000D03*
%TD*%
%TO.C,C31*%
X193820000Y-128550000D03*
X194780000Y-128550000D03*
%TD*%
%TO.C,C38*%
X192720000Y-119400000D03*
X193680000Y-119400000D03*
%TD*%
%TO.C,C39*%
X189770000Y-127600000D03*
X190730000Y-127600000D03*
%TD*%
%TO.C,C17*%
X192670000Y-120450000D03*
X193630000Y-120450000D03*
%TD*%
%TO.C,C35*%
X186620000Y-130450000D03*
X187580000Y-130450000D03*
%TD*%
M02*
