%TF.GenerationSoftware,KiCad,Pcbnew,8.0.5-8.0.5-0~ubuntu22.04.1*%
%TF.CreationDate,2024-09-18T21:08:24+02:00*%
%TF.ProjectId,ohsim_launchpad,6f687369-6d5f-46c6-9175-6e6368706164,rev?*%
%TF.SameCoordinates,Original*%
%TF.FileFunction,Drillmap*%
%TF.FilePolarity,Positive*%
%FSLAX45Y45*%
G04 Gerber Fmt 4.5, Leading zero omitted, Abs format (unit mm)*
G04 Created by KiCad (PCBNEW 8.0.5-8.0.5-0~ubuntu22.04.1) date 2024-09-18 21:08:24*
%MOMM*%
%LPD*%
G01*
G04 APERTURE LIST*
%ADD10C,0.050000*%
%ADD11C,0.200000*%
%ADD12C,0.325000*%
G04 APERTURE END LIST*
D10*
X27500000Y-20650000D02*
G75*
G02*
X27200000Y-20950000I-300000J0D01*
G01*
X27200000Y-6000000D02*
G75*
G02*
X27500000Y-6300000I0J-300000D01*
G01*
X17500000Y-6300000D02*
X17500000Y-20650000D01*
X27200000Y-6000000D02*
X17800000Y-6000000D01*
X17800000Y-20950000D02*
X27200000Y-20950000D01*
X27500000Y-20650000D02*
X27500000Y-6300000D01*
X17500000Y-6300000D02*
G75*
G02*
X17800000Y-6000000I300000J0D01*
G01*
X17800000Y-20950000D02*
G75*
G02*
X17500000Y-20650000I0J300000D01*
G01*
D11*
D12*
X18686750Y-19972500D02*
X19011750Y-20297500D01*
X19011750Y-19972500D02*
X18686750Y-20297500D01*
X19829750Y-19972500D02*
X20154750Y-20297500D01*
X20154750Y-19972500D02*
X19829750Y-20297500D01*
X20739583Y-19972500D02*
X21064583Y-20297500D01*
X21064583Y-19972500D02*
X20739583Y-20297500D01*
X21882583Y-19972500D02*
X22207583Y-20297500D01*
X22207583Y-19972500D02*
X21882583Y-20297500D01*
X22792417Y-19972500D02*
X23117417Y-20297500D01*
X23117417Y-19972500D02*
X22792417Y-20297500D01*
X23935417Y-19972500D02*
X24260417Y-20297500D01*
X24260417Y-19972500D02*
X23935417Y-20297500D01*
X24845250Y-19972500D02*
X25170250Y-20297500D01*
X25170250Y-19972500D02*
X24845250Y-20297500D01*
X25988250Y-19972500D02*
X26313250Y-20297500D01*
X26313250Y-19972500D02*
X25988250Y-20297500D01*
D11*
X17758277Y-21263984D02*
X17758277Y-21063984D01*
X17758277Y-21063984D02*
X17805896Y-21063984D01*
X17805896Y-21063984D02*
X17834467Y-21073508D01*
X17834467Y-21073508D02*
X17853515Y-21092555D01*
X17853515Y-21092555D02*
X17863039Y-21111603D01*
X17863039Y-21111603D02*
X17872563Y-21149698D01*
X17872563Y-21149698D02*
X17872563Y-21178270D01*
X17872563Y-21178270D02*
X17863039Y-21216365D01*
X17863039Y-21216365D02*
X17853515Y-21235412D01*
X17853515Y-21235412D02*
X17834467Y-21254460D01*
X17834467Y-21254460D02*
X17805896Y-21263984D01*
X17805896Y-21263984D02*
X17758277Y-21263984D01*
X17958277Y-21263984D02*
X17958277Y-21130650D01*
X17958277Y-21168746D02*
X17967801Y-21149698D01*
X17967801Y-21149698D02*
X17977324Y-21140174D01*
X17977324Y-21140174D02*
X17996372Y-21130650D01*
X17996372Y-21130650D02*
X18015420Y-21130650D01*
X18082086Y-21263984D02*
X18082086Y-21130650D01*
X18082086Y-21063984D02*
X18072563Y-21073508D01*
X18072563Y-21073508D02*
X18082086Y-21083031D01*
X18082086Y-21083031D02*
X18091610Y-21073508D01*
X18091610Y-21073508D02*
X18082086Y-21063984D01*
X18082086Y-21063984D02*
X18082086Y-21083031D01*
X18205896Y-21263984D02*
X18186848Y-21254460D01*
X18186848Y-21254460D02*
X18177324Y-21235412D01*
X18177324Y-21235412D02*
X18177324Y-21063984D01*
X18310658Y-21263984D02*
X18291610Y-21254460D01*
X18291610Y-21254460D02*
X18282086Y-21235412D01*
X18282086Y-21235412D02*
X18282086Y-21063984D01*
X18539229Y-21263984D02*
X18539229Y-21063984D01*
X18539229Y-21063984D02*
X18605896Y-21206841D01*
X18605896Y-21206841D02*
X18672563Y-21063984D01*
X18672563Y-21063984D02*
X18672563Y-21263984D01*
X18853515Y-21263984D02*
X18853515Y-21159222D01*
X18853515Y-21159222D02*
X18843991Y-21140174D01*
X18843991Y-21140174D02*
X18824944Y-21130650D01*
X18824944Y-21130650D02*
X18786848Y-21130650D01*
X18786848Y-21130650D02*
X18767801Y-21140174D01*
X18853515Y-21254460D02*
X18834467Y-21263984D01*
X18834467Y-21263984D02*
X18786848Y-21263984D01*
X18786848Y-21263984D02*
X18767801Y-21254460D01*
X18767801Y-21254460D02*
X18758277Y-21235412D01*
X18758277Y-21235412D02*
X18758277Y-21216365D01*
X18758277Y-21216365D02*
X18767801Y-21197317D01*
X18767801Y-21197317D02*
X18786848Y-21187793D01*
X18786848Y-21187793D02*
X18834467Y-21187793D01*
X18834467Y-21187793D02*
X18853515Y-21178270D01*
X18948753Y-21130650D02*
X18948753Y-21330650D01*
X18948753Y-21140174D02*
X18967801Y-21130650D01*
X18967801Y-21130650D02*
X19005896Y-21130650D01*
X19005896Y-21130650D02*
X19024944Y-21140174D01*
X19024944Y-21140174D02*
X19034467Y-21149698D01*
X19034467Y-21149698D02*
X19043991Y-21168746D01*
X19043991Y-21168746D02*
X19043991Y-21225889D01*
X19043991Y-21225889D02*
X19034467Y-21244936D01*
X19034467Y-21244936D02*
X19024944Y-21254460D01*
X19024944Y-21254460D02*
X19005896Y-21263984D01*
X19005896Y-21263984D02*
X18967801Y-21263984D01*
X18967801Y-21263984D02*
X18948753Y-21254460D01*
X19129705Y-21244936D02*
X19139229Y-21254460D01*
X19139229Y-21254460D02*
X19129705Y-21263984D01*
X19129705Y-21263984D02*
X19120182Y-21254460D01*
X19120182Y-21254460D02*
X19129705Y-21244936D01*
X19129705Y-21244936D02*
X19129705Y-21263984D01*
X19129705Y-21140174D02*
X19139229Y-21149698D01*
X19139229Y-21149698D02*
X19129705Y-21159222D01*
X19129705Y-21159222D02*
X19120182Y-21149698D01*
X19120182Y-21149698D02*
X19129705Y-21140174D01*
X19129705Y-21140174D02*
X19129705Y-21159222D01*
X17297500Y-21492500D02*
X17497500Y-21692500D01*
X17497500Y-21492500D02*
X17297500Y-21692500D01*
X17739229Y-21483984D02*
X17863039Y-21483984D01*
X17863039Y-21483984D02*
X17796372Y-21560174D01*
X17796372Y-21560174D02*
X17824944Y-21560174D01*
X17824944Y-21560174D02*
X17843991Y-21569698D01*
X17843991Y-21569698D02*
X17853515Y-21579222D01*
X17853515Y-21579222D02*
X17863039Y-21598270D01*
X17863039Y-21598270D02*
X17863039Y-21645889D01*
X17863039Y-21645889D02*
X17853515Y-21664936D01*
X17853515Y-21664936D02*
X17843991Y-21674460D01*
X17843991Y-21674460D02*
X17824944Y-21683984D01*
X17824944Y-21683984D02*
X17767801Y-21683984D01*
X17767801Y-21683984D02*
X17748753Y-21674460D01*
X17748753Y-21674460D02*
X17739229Y-21664936D01*
X17948753Y-21664936D02*
X17958277Y-21674460D01*
X17958277Y-21674460D02*
X17948753Y-21683984D01*
X17948753Y-21683984D02*
X17939229Y-21674460D01*
X17939229Y-21674460D02*
X17948753Y-21664936D01*
X17948753Y-21664936D02*
X17948753Y-21683984D01*
X18034467Y-21503031D02*
X18043991Y-21493508D01*
X18043991Y-21493508D02*
X18063039Y-21483984D01*
X18063039Y-21483984D02*
X18110658Y-21483984D01*
X18110658Y-21483984D02*
X18129705Y-21493508D01*
X18129705Y-21493508D02*
X18139229Y-21503031D01*
X18139229Y-21503031D02*
X18148753Y-21522079D01*
X18148753Y-21522079D02*
X18148753Y-21541127D01*
X18148753Y-21541127D02*
X18139229Y-21569698D01*
X18139229Y-21569698D02*
X18024944Y-21683984D01*
X18024944Y-21683984D02*
X18148753Y-21683984D01*
X18329705Y-21483984D02*
X18234467Y-21483984D01*
X18234467Y-21483984D02*
X18224944Y-21579222D01*
X18224944Y-21579222D02*
X18234467Y-21569698D01*
X18234467Y-21569698D02*
X18253515Y-21560174D01*
X18253515Y-21560174D02*
X18301134Y-21560174D01*
X18301134Y-21560174D02*
X18320182Y-21569698D01*
X18320182Y-21569698D02*
X18329705Y-21579222D01*
X18329705Y-21579222D02*
X18339229Y-21598270D01*
X18339229Y-21598270D02*
X18339229Y-21645889D01*
X18339229Y-21645889D02*
X18329705Y-21664936D01*
X18329705Y-21664936D02*
X18320182Y-21674460D01*
X18320182Y-21674460D02*
X18301134Y-21683984D01*
X18301134Y-21683984D02*
X18253515Y-21683984D01*
X18253515Y-21683984D02*
X18234467Y-21674460D01*
X18234467Y-21674460D02*
X18224944Y-21664936D01*
X18463039Y-21483984D02*
X18482086Y-21483984D01*
X18482086Y-21483984D02*
X18501134Y-21493508D01*
X18501134Y-21493508D02*
X18510658Y-21503031D01*
X18510658Y-21503031D02*
X18520182Y-21522079D01*
X18520182Y-21522079D02*
X18529705Y-21560174D01*
X18529705Y-21560174D02*
X18529705Y-21607793D01*
X18529705Y-21607793D02*
X18520182Y-21645889D01*
X18520182Y-21645889D02*
X18510658Y-21664936D01*
X18510658Y-21664936D02*
X18501134Y-21674460D01*
X18501134Y-21674460D02*
X18482086Y-21683984D01*
X18482086Y-21683984D02*
X18463039Y-21683984D01*
X18463039Y-21683984D02*
X18443991Y-21674460D01*
X18443991Y-21674460D02*
X18434467Y-21664936D01*
X18434467Y-21664936D02*
X18424944Y-21645889D01*
X18424944Y-21645889D02*
X18415420Y-21607793D01*
X18415420Y-21607793D02*
X18415420Y-21560174D01*
X18415420Y-21560174D02*
X18424944Y-21522079D01*
X18424944Y-21522079D02*
X18434467Y-21503031D01*
X18434467Y-21503031D02*
X18443991Y-21493508D01*
X18443991Y-21493508D02*
X18463039Y-21483984D01*
X18615420Y-21683984D02*
X18615420Y-21550650D01*
X18615420Y-21569698D02*
X18624944Y-21560174D01*
X18624944Y-21560174D02*
X18643991Y-21550650D01*
X18643991Y-21550650D02*
X18672563Y-21550650D01*
X18672563Y-21550650D02*
X18691610Y-21560174D01*
X18691610Y-21560174D02*
X18701134Y-21579222D01*
X18701134Y-21579222D02*
X18701134Y-21683984D01*
X18701134Y-21579222D02*
X18710658Y-21560174D01*
X18710658Y-21560174D02*
X18729705Y-21550650D01*
X18729705Y-21550650D02*
X18758277Y-21550650D01*
X18758277Y-21550650D02*
X18777325Y-21560174D01*
X18777325Y-21560174D02*
X18786848Y-21579222D01*
X18786848Y-21579222D02*
X18786848Y-21683984D01*
X18882086Y-21683984D02*
X18882086Y-21550650D01*
X18882086Y-21569698D02*
X18891610Y-21560174D01*
X18891610Y-21560174D02*
X18910658Y-21550650D01*
X18910658Y-21550650D02*
X18939229Y-21550650D01*
X18939229Y-21550650D02*
X18958277Y-21560174D01*
X18958277Y-21560174D02*
X18967801Y-21579222D01*
X18967801Y-21579222D02*
X18967801Y-21683984D01*
X18967801Y-21579222D02*
X18977325Y-21560174D01*
X18977325Y-21560174D02*
X18996372Y-21550650D01*
X18996372Y-21550650D02*
X19024944Y-21550650D01*
X19024944Y-21550650D02*
X19043991Y-21560174D01*
X19043991Y-21560174D02*
X19053515Y-21579222D01*
X19053515Y-21579222D02*
X19053515Y-21683984D01*
X19443991Y-21474460D02*
X19272563Y-21731603D01*
X19701134Y-21483984D02*
X19720182Y-21483984D01*
X19720182Y-21483984D02*
X19739229Y-21493508D01*
X19739229Y-21493508D02*
X19748753Y-21503031D01*
X19748753Y-21503031D02*
X19758277Y-21522079D01*
X19758277Y-21522079D02*
X19767801Y-21560174D01*
X19767801Y-21560174D02*
X19767801Y-21607793D01*
X19767801Y-21607793D02*
X19758277Y-21645889D01*
X19758277Y-21645889D02*
X19748753Y-21664936D01*
X19748753Y-21664936D02*
X19739229Y-21674460D01*
X19739229Y-21674460D02*
X19720182Y-21683984D01*
X19720182Y-21683984D02*
X19701134Y-21683984D01*
X19701134Y-21683984D02*
X19682087Y-21674460D01*
X19682087Y-21674460D02*
X19672563Y-21664936D01*
X19672563Y-21664936D02*
X19663039Y-21645889D01*
X19663039Y-21645889D02*
X19653515Y-21607793D01*
X19653515Y-21607793D02*
X19653515Y-21560174D01*
X19653515Y-21560174D02*
X19663039Y-21522079D01*
X19663039Y-21522079D02*
X19672563Y-21503031D01*
X19672563Y-21503031D02*
X19682087Y-21493508D01*
X19682087Y-21493508D02*
X19701134Y-21483984D01*
X19853515Y-21664936D02*
X19863039Y-21674460D01*
X19863039Y-21674460D02*
X19853515Y-21683984D01*
X19853515Y-21683984D02*
X19843991Y-21674460D01*
X19843991Y-21674460D02*
X19853515Y-21664936D01*
X19853515Y-21664936D02*
X19853515Y-21683984D01*
X20053515Y-21683984D02*
X19939229Y-21683984D01*
X19996372Y-21683984D02*
X19996372Y-21483984D01*
X19996372Y-21483984D02*
X19977325Y-21512555D01*
X19977325Y-21512555D02*
X19958277Y-21531603D01*
X19958277Y-21531603D02*
X19939229Y-21541127D01*
X20129706Y-21503031D02*
X20139229Y-21493508D01*
X20139229Y-21493508D02*
X20158277Y-21483984D01*
X20158277Y-21483984D02*
X20205896Y-21483984D01*
X20205896Y-21483984D02*
X20224944Y-21493508D01*
X20224944Y-21493508D02*
X20234468Y-21503031D01*
X20234468Y-21503031D02*
X20243991Y-21522079D01*
X20243991Y-21522079D02*
X20243991Y-21541127D01*
X20243991Y-21541127D02*
X20234468Y-21569698D01*
X20234468Y-21569698D02*
X20120182Y-21683984D01*
X20120182Y-21683984D02*
X20243991Y-21683984D01*
X20358277Y-21569698D02*
X20339229Y-21560174D01*
X20339229Y-21560174D02*
X20329706Y-21550650D01*
X20329706Y-21550650D02*
X20320182Y-21531603D01*
X20320182Y-21531603D02*
X20320182Y-21522079D01*
X20320182Y-21522079D02*
X20329706Y-21503031D01*
X20329706Y-21503031D02*
X20339229Y-21493508D01*
X20339229Y-21493508D02*
X20358277Y-21483984D01*
X20358277Y-21483984D02*
X20396372Y-21483984D01*
X20396372Y-21483984D02*
X20415420Y-21493508D01*
X20415420Y-21493508D02*
X20424944Y-21503031D01*
X20424944Y-21503031D02*
X20434468Y-21522079D01*
X20434468Y-21522079D02*
X20434468Y-21531603D01*
X20434468Y-21531603D02*
X20424944Y-21550650D01*
X20424944Y-21550650D02*
X20415420Y-21560174D01*
X20415420Y-21560174D02*
X20396372Y-21569698D01*
X20396372Y-21569698D02*
X20358277Y-21569698D01*
X20358277Y-21569698D02*
X20339229Y-21579222D01*
X20339229Y-21579222D02*
X20329706Y-21588746D01*
X20329706Y-21588746D02*
X20320182Y-21607793D01*
X20320182Y-21607793D02*
X20320182Y-21645889D01*
X20320182Y-21645889D02*
X20329706Y-21664936D01*
X20329706Y-21664936D02*
X20339229Y-21674460D01*
X20339229Y-21674460D02*
X20358277Y-21683984D01*
X20358277Y-21683984D02*
X20396372Y-21683984D01*
X20396372Y-21683984D02*
X20415420Y-21674460D01*
X20415420Y-21674460D02*
X20424944Y-21664936D01*
X20424944Y-21664936D02*
X20434468Y-21645889D01*
X20434468Y-21645889D02*
X20434468Y-21607793D01*
X20434468Y-21607793D02*
X20424944Y-21588746D01*
X20424944Y-21588746D02*
X20415420Y-21579222D01*
X20415420Y-21579222D02*
X20396372Y-21569698D01*
X20558277Y-21483984D02*
X20577325Y-21483984D01*
X20577325Y-21483984D02*
X20596372Y-21493508D01*
X20596372Y-21493508D02*
X20605896Y-21503031D01*
X20605896Y-21503031D02*
X20615420Y-21522079D01*
X20615420Y-21522079D02*
X20624944Y-21560174D01*
X20624944Y-21560174D02*
X20624944Y-21607793D01*
X20624944Y-21607793D02*
X20615420Y-21645889D01*
X20615420Y-21645889D02*
X20605896Y-21664936D01*
X20605896Y-21664936D02*
X20596372Y-21674460D01*
X20596372Y-21674460D02*
X20577325Y-21683984D01*
X20577325Y-21683984D02*
X20558277Y-21683984D01*
X20558277Y-21683984D02*
X20539229Y-21674460D01*
X20539229Y-21674460D02*
X20529706Y-21664936D01*
X20529706Y-21664936D02*
X20520182Y-21645889D01*
X20520182Y-21645889D02*
X20510658Y-21607793D01*
X20510658Y-21607793D02*
X20510658Y-21560174D01*
X20510658Y-21560174D02*
X20520182Y-21522079D01*
X20520182Y-21522079D02*
X20529706Y-21503031D01*
X20529706Y-21503031D02*
X20539229Y-21493508D01*
X20539229Y-21493508D02*
X20558277Y-21483984D01*
X20701134Y-21483984D02*
X20701134Y-21522079D01*
X20777325Y-21483984D02*
X20777325Y-21522079D01*
X21072563Y-21760174D02*
X21063039Y-21750650D01*
X21063039Y-21750650D02*
X21043991Y-21722079D01*
X21043991Y-21722079D02*
X21034468Y-21703031D01*
X21034468Y-21703031D02*
X21024944Y-21674460D01*
X21024944Y-21674460D02*
X21015420Y-21626841D01*
X21015420Y-21626841D02*
X21015420Y-21588746D01*
X21015420Y-21588746D02*
X21024944Y-21541127D01*
X21024944Y-21541127D02*
X21034468Y-21512555D01*
X21034468Y-21512555D02*
X21043991Y-21493508D01*
X21043991Y-21493508D02*
X21063039Y-21464936D01*
X21063039Y-21464936D02*
X21072563Y-21455412D01*
X21177325Y-21569698D02*
X21158277Y-21560174D01*
X21158277Y-21560174D02*
X21148753Y-21550650D01*
X21148753Y-21550650D02*
X21139230Y-21531603D01*
X21139230Y-21531603D02*
X21139230Y-21522079D01*
X21139230Y-21522079D02*
X21148753Y-21503031D01*
X21148753Y-21503031D02*
X21158277Y-21493508D01*
X21158277Y-21493508D02*
X21177325Y-21483984D01*
X21177325Y-21483984D02*
X21215420Y-21483984D01*
X21215420Y-21483984D02*
X21234468Y-21493508D01*
X21234468Y-21493508D02*
X21243991Y-21503031D01*
X21243991Y-21503031D02*
X21253515Y-21522079D01*
X21253515Y-21522079D02*
X21253515Y-21531603D01*
X21253515Y-21531603D02*
X21243991Y-21550650D01*
X21243991Y-21550650D02*
X21234468Y-21560174D01*
X21234468Y-21560174D02*
X21215420Y-21569698D01*
X21215420Y-21569698D02*
X21177325Y-21569698D01*
X21177325Y-21569698D02*
X21158277Y-21579222D01*
X21158277Y-21579222D02*
X21148753Y-21588746D01*
X21148753Y-21588746D02*
X21139230Y-21607793D01*
X21139230Y-21607793D02*
X21139230Y-21645889D01*
X21139230Y-21645889D02*
X21148753Y-21664936D01*
X21148753Y-21664936D02*
X21158277Y-21674460D01*
X21158277Y-21674460D02*
X21177325Y-21683984D01*
X21177325Y-21683984D02*
X21215420Y-21683984D01*
X21215420Y-21683984D02*
X21234468Y-21674460D01*
X21234468Y-21674460D02*
X21243991Y-21664936D01*
X21243991Y-21664936D02*
X21253515Y-21645889D01*
X21253515Y-21645889D02*
X21253515Y-21607793D01*
X21253515Y-21607793D02*
X21243991Y-21588746D01*
X21243991Y-21588746D02*
X21234468Y-21579222D01*
X21234468Y-21579222D02*
X21215420Y-21569698D01*
X21491611Y-21683984D02*
X21491611Y-21483984D01*
X21577325Y-21683984D02*
X21577325Y-21579222D01*
X21577325Y-21579222D02*
X21567801Y-21560174D01*
X21567801Y-21560174D02*
X21548753Y-21550650D01*
X21548753Y-21550650D02*
X21520182Y-21550650D01*
X21520182Y-21550650D02*
X21501134Y-21560174D01*
X21501134Y-21560174D02*
X21491611Y-21569698D01*
X21701134Y-21683984D02*
X21682087Y-21674460D01*
X21682087Y-21674460D02*
X21672563Y-21664936D01*
X21672563Y-21664936D02*
X21663039Y-21645889D01*
X21663039Y-21645889D02*
X21663039Y-21588746D01*
X21663039Y-21588746D02*
X21672563Y-21569698D01*
X21672563Y-21569698D02*
X21682087Y-21560174D01*
X21682087Y-21560174D02*
X21701134Y-21550650D01*
X21701134Y-21550650D02*
X21729706Y-21550650D01*
X21729706Y-21550650D02*
X21748753Y-21560174D01*
X21748753Y-21560174D02*
X21758277Y-21569698D01*
X21758277Y-21569698D02*
X21767801Y-21588746D01*
X21767801Y-21588746D02*
X21767801Y-21645889D01*
X21767801Y-21645889D02*
X21758277Y-21664936D01*
X21758277Y-21664936D02*
X21748753Y-21674460D01*
X21748753Y-21674460D02*
X21729706Y-21683984D01*
X21729706Y-21683984D02*
X21701134Y-21683984D01*
X21882087Y-21683984D02*
X21863039Y-21674460D01*
X21863039Y-21674460D02*
X21853515Y-21655412D01*
X21853515Y-21655412D02*
X21853515Y-21483984D01*
X22034468Y-21674460D02*
X22015420Y-21683984D01*
X22015420Y-21683984D02*
X21977325Y-21683984D01*
X21977325Y-21683984D02*
X21958277Y-21674460D01*
X21958277Y-21674460D02*
X21948753Y-21655412D01*
X21948753Y-21655412D02*
X21948753Y-21579222D01*
X21948753Y-21579222D02*
X21958277Y-21560174D01*
X21958277Y-21560174D02*
X21977325Y-21550650D01*
X21977325Y-21550650D02*
X22015420Y-21550650D01*
X22015420Y-21550650D02*
X22034468Y-21560174D01*
X22034468Y-21560174D02*
X22043992Y-21579222D01*
X22043992Y-21579222D02*
X22043992Y-21598270D01*
X22043992Y-21598270D02*
X21948753Y-21617317D01*
X22120182Y-21674460D02*
X22139230Y-21683984D01*
X22139230Y-21683984D02*
X22177325Y-21683984D01*
X22177325Y-21683984D02*
X22196373Y-21674460D01*
X22196373Y-21674460D02*
X22205896Y-21655412D01*
X22205896Y-21655412D02*
X22205896Y-21645889D01*
X22205896Y-21645889D02*
X22196373Y-21626841D01*
X22196373Y-21626841D02*
X22177325Y-21617317D01*
X22177325Y-21617317D02*
X22148753Y-21617317D01*
X22148753Y-21617317D02*
X22129706Y-21607793D01*
X22129706Y-21607793D02*
X22120182Y-21588746D01*
X22120182Y-21588746D02*
X22120182Y-21579222D01*
X22120182Y-21579222D02*
X22129706Y-21560174D01*
X22129706Y-21560174D02*
X22148753Y-21550650D01*
X22148753Y-21550650D02*
X22177325Y-21550650D01*
X22177325Y-21550650D02*
X22196373Y-21560174D01*
X22272563Y-21760174D02*
X22282087Y-21750650D01*
X22282087Y-21750650D02*
X22301134Y-21722079D01*
X22301134Y-21722079D02*
X22310658Y-21703031D01*
X22310658Y-21703031D02*
X22320182Y-21674460D01*
X22320182Y-21674460D02*
X22329706Y-21626841D01*
X22329706Y-21626841D02*
X22329706Y-21588746D01*
X22329706Y-21588746D02*
X22320182Y-21541127D01*
X22320182Y-21541127D02*
X22310658Y-21512555D01*
X22310658Y-21512555D02*
X22301134Y-21493508D01*
X22301134Y-21493508D02*
X22282087Y-21464936D01*
X22282087Y-21464936D02*
X22272563Y-21455412D01*
X22634468Y-21760174D02*
X22624944Y-21750650D01*
X22624944Y-21750650D02*
X22605896Y-21722079D01*
X22605896Y-21722079D02*
X22596372Y-21703031D01*
X22596372Y-21703031D02*
X22586849Y-21674460D01*
X22586849Y-21674460D02*
X22577325Y-21626841D01*
X22577325Y-21626841D02*
X22577325Y-21588746D01*
X22577325Y-21588746D02*
X22586849Y-21541127D01*
X22586849Y-21541127D02*
X22596372Y-21512555D01*
X22596372Y-21512555D02*
X22605896Y-21493508D01*
X22605896Y-21493508D02*
X22624944Y-21464936D01*
X22624944Y-21464936D02*
X22634468Y-21455412D01*
X22710658Y-21550650D02*
X22710658Y-21683984D01*
X22710658Y-21569698D02*
X22720182Y-21560174D01*
X22720182Y-21560174D02*
X22739230Y-21550650D01*
X22739230Y-21550650D02*
X22767801Y-21550650D01*
X22767801Y-21550650D02*
X22786849Y-21560174D01*
X22786849Y-21560174D02*
X22796372Y-21579222D01*
X22796372Y-21579222D02*
X22796372Y-21683984D01*
X22920182Y-21683984D02*
X22901134Y-21674460D01*
X22901134Y-21674460D02*
X22891611Y-21664936D01*
X22891611Y-21664936D02*
X22882087Y-21645889D01*
X22882087Y-21645889D02*
X22882087Y-21588746D01*
X22882087Y-21588746D02*
X22891611Y-21569698D01*
X22891611Y-21569698D02*
X22901134Y-21560174D01*
X22901134Y-21560174D02*
X22920182Y-21550650D01*
X22920182Y-21550650D02*
X22948753Y-21550650D01*
X22948753Y-21550650D02*
X22967801Y-21560174D01*
X22967801Y-21560174D02*
X22977325Y-21569698D01*
X22977325Y-21569698D02*
X22986849Y-21588746D01*
X22986849Y-21588746D02*
X22986849Y-21645889D01*
X22986849Y-21645889D02*
X22977325Y-21664936D01*
X22977325Y-21664936D02*
X22967801Y-21674460D01*
X22967801Y-21674460D02*
X22948753Y-21683984D01*
X22948753Y-21683984D02*
X22920182Y-21683984D01*
X23043992Y-21550650D02*
X23120182Y-21550650D01*
X23072563Y-21483984D02*
X23072563Y-21655412D01*
X23072563Y-21655412D02*
X23082087Y-21674460D01*
X23082087Y-21674460D02*
X23101134Y-21683984D01*
X23101134Y-21683984D02*
X23120182Y-21683984D01*
X23339230Y-21550650D02*
X23339230Y-21750650D01*
X23339230Y-21560174D02*
X23358277Y-21550650D01*
X23358277Y-21550650D02*
X23396373Y-21550650D01*
X23396373Y-21550650D02*
X23415420Y-21560174D01*
X23415420Y-21560174D02*
X23424944Y-21569698D01*
X23424944Y-21569698D02*
X23434468Y-21588746D01*
X23434468Y-21588746D02*
X23434468Y-21645889D01*
X23434468Y-21645889D02*
X23424944Y-21664936D01*
X23424944Y-21664936D02*
X23415420Y-21674460D01*
X23415420Y-21674460D02*
X23396373Y-21683984D01*
X23396373Y-21683984D02*
X23358277Y-21683984D01*
X23358277Y-21683984D02*
X23339230Y-21674460D01*
X23548753Y-21683984D02*
X23529706Y-21674460D01*
X23529706Y-21674460D02*
X23520182Y-21655412D01*
X23520182Y-21655412D02*
X23520182Y-21483984D01*
X23710658Y-21683984D02*
X23710658Y-21579222D01*
X23710658Y-21579222D02*
X23701134Y-21560174D01*
X23701134Y-21560174D02*
X23682087Y-21550650D01*
X23682087Y-21550650D02*
X23643992Y-21550650D01*
X23643992Y-21550650D02*
X23624944Y-21560174D01*
X23710658Y-21674460D02*
X23691611Y-21683984D01*
X23691611Y-21683984D02*
X23643992Y-21683984D01*
X23643992Y-21683984D02*
X23624944Y-21674460D01*
X23624944Y-21674460D02*
X23615420Y-21655412D01*
X23615420Y-21655412D02*
X23615420Y-21636365D01*
X23615420Y-21636365D02*
X23624944Y-21617317D01*
X23624944Y-21617317D02*
X23643992Y-21607793D01*
X23643992Y-21607793D02*
X23691611Y-21607793D01*
X23691611Y-21607793D02*
X23710658Y-21598270D01*
X23777325Y-21550650D02*
X23853515Y-21550650D01*
X23805896Y-21483984D02*
X23805896Y-21655412D01*
X23805896Y-21655412D02*
X23815420Y-21674460D01*
X23815420Y-21674460D02*
X23834468Y-21683984D01*
X23834468Y-21683984D02*
X23853515Y-21683984D01*
X23996373Y-21674460D02*
X23977325Y-21683984D01*
X23977325Y-21683984D02*
X23939230Y-21683984D01*
X23939230Y-21683984D02*
X23920182Y-21674460D01*
X23920182Y-21674460D02*
X23910658Y-21655412D01*
X23910658Y-21655412D02*
X23910658Y-21579222D01*
X23910658Y-21579222D02*
X23920182Y-21560174D01*
X23920182Y-21560174D02*
X23939230Y-21550650D01*
X23939230Y-21550650D02*
X23977325Y-21550650D01*
X23977325Y-21550650D02*
X23996373Y-21560174D01*
X23996373Y-21560174D02*
X24005896Y-21579222D01*
X24005896Y-21579222D02*
X24005896Y-21598270D01*
X24005896Y-21598270D02*
X23910658Y-21617317D01*
X24177325Y-21683984D02*
X24177325Y-21483984D01*
X24177325Y-21674460D02*
X24158277Y-21683984D01*
X24158277Y-21683984D02*
X24120182Y-21683984D01*
X24120182Y-21683984D02*
X24101134Y-21674460D01*
X24101134Y-21674460D02*
X24091611Y-21664936D01*
X24091611Y-21664936D02*
X24082087Y-21645889D01*
X24082087Y-21645889D02*
X24082087Y-21588746D01*
X24082087Y-21588746D02*
X24091611Y-21569698D01*
X24091611Y-21569698D02*
X24101134Y-21560174D01*
X24101134Y-21560174D02*
X24120182Y-21550650D01*
X24120182Y-21550650D02*
X24158277Y-21550650D01*
X24158277Y-21550650D02*
X24177325Y-21560174D01*
X24253515Y-21760174D02*
X24263039Y-21750650D01*
X24263039Y-21750650D02*
X24282087Y-21722079D01*
X24282087Y-21722079D02*
X24291611Y-21703031D01*
X24291611Y-21703031D02*
X24301134Y-21674460D01*
X24301134Y-21674460D02*
X24310658Y-21626841D01*
X24310658Y-21626841D02*
X24310658Y-21588746D01*
X24310658Y-21588746D02*
X24301134Y-21541127D01*
X24301134Y-21541127D02*
X24291611Y-21512555D01*
X24291611Y-21512555D02*
X24282087Y-21493508D01*
X24282087Y-21493508D02*
X24263039Y-21464936D01*
X24263039Y-21464936D02*
X24253515Y-21455412D01*
M02*
