%TF.GenerationSoftware,KiCad,Pcbnew,8.0.5-8.0.5-0~ubuntu22.04.1*%
%TF.CreationDate,2024-09-18T21:08:09+02:00*%
%TF.ProjectId,ohsim_launchpad,6f687369-6d5f-46c6-9175-6e6368706164,rev?*%
%TF.SameCoordinates,Original*%
%TF.FileFunction,Soldermask,Bot*%
%TF.FilePolarity,Negative*%
%FSLAX46Y46*%
G04 Gerber Fmt 4.6, Leading zero omitted, Abs format (unit mm)*
G04 Created by KiCad (PCBNEW 8.0.5-8.0.5-0~ubuntu22.04.1) date 2024-09-18 21:08:09*
%MOMM*%
%LPD*%
G01*
G04 APERTURE LIST*
G04 Aperture macros list*
%AMRoundRect*
0 Rectangle with rounded corners*
0 $1 Rounding radius*
0 $2 $3 $4 $5 $6 $7 $8 $9 X,Y pos of 4 corners*
0 Add a 4 corners polygon primitive as box body*
4,1,4,$2,$3,$4,$5,$6,$7,$8,$9,$2,$3,0*
0 Add four circle primitives for the rounded corners*
1,1,$1+$1,$2,$3*
1,1,$1+$1,$4,$5*
1,1,$1+$1,$6,$7*
1,1,$1+$1,$8,$9*
0 Add four rect primitives between the rounded corners*
20,1,$1+$1,$2,$3,$4,$5,0*
20,1,$1+$1,$4,$5,$6,$7,0*
20,1,$1+$1,$6,$7,$8,$9,0*
20,1,$1+$1,$8,$9,$2,$3,0*%
G04 Aperture macros list end*
%ADD10RoundRect,0.200000X-0.200000X-0.275000X0.200000X-0.275000X0.200000X0.275000X-0.200000X0.275000X0*%
%ADD11R,1.200000X0.700000*%
%ADD12R,0.800000X1.000000*%
%ADD13R,1.200000X1.000000*%
%ADD14R,2.800000X1.000000*%
%ADD15R,1.900000X1.300000*%
%ADD16C,6.400000*%
%ADD17C,1.727200*%
%ADD18R,1.727200X1.727200*%
%ADD19C,3.250000*%
%ADD20R,1.500000X1.500000*%
%ADD21C,1.500000*%
%ADD22C,3.000000*%
%ADD23RoundRect,0.102000X-0.939800X0.939800X-0.939800X-0.939800X0.939800X-0.939800X0.939800X0.939800X0*%
%ADD24C,2.083600*%
%ADD25O,0.900000X1.600000*%
%ADD26O,1.700000X1.700000*%
%ADD27R,1.700000X1.700000*%
%ADD28RoundRect,0.140000X-0.140000X-0.170000X0.140000X-0.170000X0.140000X0.170000X-0.140000X0.170000X0*%
%ADD29RoundRect,0.250000X0.250000X0.475000X-0.250000X0.475000X-0.250000X-0.475000X0.250000X-0.475000X0*%
G04 APERTURE END LIST*
D10*
%TO.C,R68*%
X187675000Y-88100000D03*
X189325000Y-88100000D03*
%TD*%
D11*
%TO.C,J7*%
X191700000Y-76350000D03*
X191700000Y-77450000D03*
X191700000Y-78550000D03*
X191700000Y-79650000D03*
X191700000Y-80750000D03*
X191700000Y-81850000D03*
X191700000Y-82950000D03*
X191700000Y-84050000D03*
X191700000Y-85000000D03*
D12*
X181200000Y-85950000D03*
D13*
X187400000Y-85950000D03*
D14*
X177050000Y-85950000D03*
D13*
X191700000Y-74800000D03*
D15*
X176600000Y-72450000D03*
%TD*%
D16*
%TO.C,H3*%
X270500000Y-205000000D03*
%TD*%
D17*
%TO.C,A1*%
X254900000Y-90160000D03*
X254900000Y-85080000D03*
X234580000Y-87620000D03*
X234580000Y-90160000D03*
X234580000Y-92700000D03*
X234580000Y-95240000D03*
X234580000Y-97780000D03*
X234580000Y-100320000D03*
X234580000Y-102860000D03*
X234580000Y-85080000D03*
X234580000Y-105400000D03*
X234580000Y-107940000D03*
X234580000Y-110480000D03*
X234580000Y-113020000D03*
X234580000Y-115560000D03*
X234580000Y-118100000D03*
X254900000Y-118100000D03*
X254900000Y-115560000D03*
X254900000Y-113020000D03*
X254900000Y-110480000D03*
X254900000Y-107940000D03*
X254900000Y-105400000D03*
X254900000Y-102860000D03*
X254900000Y-100320000D03*
X254900000Y-97780000D03*
D18*
X254900000Y-92700000D03*
D17*
X254900000Y-95240000D03*
X254900000Y-87620000D03*
%TD*%
D16*
%TO.C,H4*%
X180000000Y-205000000D03*
%TD*%
%TO.C,H1*%
X270500000Y-64500000D03*
%TD*%
D19*
%TO.C,J5*%
X250077500Y-201350000D03*
X261507500Y-201350000D03*
D20*
X251347500Y-195000000D03*
D21*
X252617500Y-192460000D03*
X253887500Y-195000000D03*
X255157500Y-192460000D03*
X256427500Y-195000000D03*
X257697500Y-192460000D03*
X258967500Y-195000000D03*
X260237500Y-192460000D03*
D22*
X248022500Y-204400000D03*
X263562500Y-204400000D03*
%TD*%
D19*
%TO.C,J3*%
X209020833Y-201350000D03*
X220450833Y-201350000D03*
D20*
X210290833Y-195000000D03*
D21*
X211560833Y-192460000D03*
X212830833Y-195000000D03*
X214100833Y-192460000D03*
X215370833Y-195000000D03*
X216640833Y-192460000D03*
X217910833Y-195000000D03*
X219180833Y-192460000D03*
D22*
X206965833Y-204400000D03*
X222505833Y-204400000D03*
%TD*%
D19*
%TO.C,J4*%
X229549166Y-201350000D03*
X240979166Y-201350000D03*
D20*
X230819166Y-195000000D03*
D21*
X232089166Y-192460000D03*
X233359166Y-195000000D03*
X234629166Y-192460000D03*
X235899166Y-195000000D03*
X237169166Y-192460000D03*
X238439166Y-195000000D03*
X239709166Y-192460000D03*
D22*
X227494166Y-204400000D03*
X243034166Y-204400000D03*
%TD*%
D16*
%TO.C,H2*%
X180000000Y-64500000D03*
%TD*%
D23*
%TO.C,U3*%
X219160000Y-82840000D03*
D24*
X219160000Y-85380000D03*
X219160000Y-87920000D03*
X219160000Y-90460000D03*
X219160000Y-93000000D03*
X219160000Y-95540000D03*
X219160000Y-98080000D03*
X219160000Y-100620000D03*
X219160000Y-103160000D03*
X219160000Y-105700000D03*
D23*
X264880000Y-105700000D03*
D24*
X264880000Y-103160000D03*
X264880000Y-100620000D03*
X264880000Y-98080000D03*
X264880000Y-95540000D03*
X264880000Y-93000000D03*
X264880000Y-90460000D03*
X264880000Y-87920000D03*
X264880000Y-85380000D03*
X264880000Y-82840000D03*
D23*
X221700000Y-82840000D03*
D24*
X221700000Y-85380000D03*
X221700000Y-87920000D03*
X221700000Y-90460000D03*
X221700000Y-93000000D03*
X221700000Y-95540000D03*
X221700000Y-98080000D03*
X221700000Y-100620000D03*
X221700000Y-103160000D03*
X221700000Y-105700000D03*
D23*
X262340000Y-105700000D03*
D24*
X262340000Y-103160000D03*
X262340000Y-100620000D03*
X262340000Y-98080000D03*
X262340000Y-95540000D03*
X262340000Y-93000000D03*
X262340000Y-90460000D03*
X262340000Y-87920000D03*
X262340000Y-85380000D03*
X262340000Y-82840000D03*
D23*
X219160000Y-146340000D03*
D24*
X219160000Y-148880000D03*
X219160000Y-151420000D03*
X219160000Y-153960000D03*
X219160000Y-156500000D03*
X219160000Y-159040000D03*
X219160000Y-161580000D03*
X219160000Y-164120000D03*
X219160000Y-166660000D03*
X219160000Y-169200000D03*
D23*
X264880000Y-169200000D03*
D24*
X264880000Y-166660000D03*
X264880000Y-164120000D03*
X264880000Y-161580000D03*
X264880000Y-159040000D03*
X264880000Y-156500000D03*
X264880000Y-153960000D03*
X264880000Y-151420000D03*
X264880000Y-148880000D03*
X264880000Y-146340000D03*
D23*
X221700000Y-146340000D03*
D24*
X221700000Y-148880000D03*
X221700000Y-151420000D03*
X221700000Y-153960000D03*
X221700000Y-156500000D03*
X221700000Y-159040000D03*
X221700000Y-161580000D03*
X221700000Y-164120000D03*
X221700000Y-166660000D03*
X221700000Y-169200000D03*
D23*
X262340000Y-169200000D03*
D24*
X262340000Y-166660000D03*
X262340000Y-164120000D03*
X262340000Y-161580000D03*
X262340000Y-159040000D03*
X262340000Y-156500000D03*
X262340000Y-153960000D03*
X262340000Y-151420000D03*
X262340000Y-148880000D03*
X262340000Y-146340000D03*
%TD*%
D25*
%TO.C,J1*%
X201300000Y-61525000D03*
X194700000Y-61525000D03*
%TD*%
D26*
%TO.C,U15*%
X231520000Y-72870000D03*
X231520000Y-75410000D03*
D27*
X231520000Y-77950000D03*
D26*
X231520000Y-80490000D03*
X231520000Y-83030000D03*
X231520000Y-85570000D03*
X231520000Y-88110000D03*
D27*
X231520000Y-90650000D03*
D26*
X231520000Y-93190000D03*
X231520000Y-95730000D03*
X231520000Y-98270000D03*
X231520000Y-100810000D03*
D27*
X231520000Y-103350000D03*
D26*
X231520000Y-105890000D03*
X231520000Y-108430000D03*
X231520000Y-110970000D03*
X231520000Y-113510000D03*
D27*
X231520000Y-116050000D03*
D26*
X231520000Y-118590000D03*
X231520000Y-121130000D03*
X249300000Y-121130000D03*
X249300000Y-118590000D03*
D27*
X249300000Y-116050000D03*
D26*
X249300000Y-113510000D03*
X249300000Y-110970000D03*
X249300000Y-108430000D03*
X249300000Y-105890000D03*
D27*
X249300000Y-103350000D03*
D26*
X249300000Y-100810000D03*
X249300000Y-98270000D03*
X249300000Y-95730000D03*
X249300000Y-93190000D03*
D27*
X249300000Y-90650000D03*
D26*
X249300000Y-88110000D03*
X249300000Y-85570000D03*
X249300000Y-83030000D03*
X249300000Y-80490000D03*
D27*
X249300000Y-77950000D03*
D26*
X249300000Y-75410000D03*
X249300000Y-72870000D03*
%TD*%
D19*
%TO.C,J2*%
X188492500Y-201350000D03*
X199922500Y-201350000D03*
D20*
X189762500Y-195000000D03*
D21*
X191032500Y-192460000D03*
X192302500Y-195000000D03*
X193572500Y-192460000D03*
X194842500Y-195000000D03*
X196112500Y-192460000D03*
X197382500Y-195000000D03*
X198652500Y-192460000D03*
D22*
X186437500Y-204400000D03*
X201977500Y-204400000D03*
%TD*%
D28*
%TO.C,C41*%
X190770000Y-130450000D03*
X191730000Y-130450000D03*
%TD*%
D29*
%TO.C,C19*%
X188650000Y-120400000D03*
X186750000Y-120400000D03*
%TD*%
D28*
%TO.C,C44*%
X192570000Y-127500000D03*
X193530000Y-127500000D03*
%TD*%
D29*
%TO.C,C22*%
X188650000Y-122500000D03*
X186750000Y-122500000D03*
%TD*%
D28*
%TO.C,C11*%
X186720000Y-125600000D03*
X187680000Y-125600000D03*
%TD*%
%TO.C,C21*%
X196770000Y-124450000D03*
X197730000Y-124450000D03*
%TD*%
%TO.C,C43*%
X196920000Y-130500000D03*
X197880000Y-130500000D03*
%TD*%
%TO.C,C13*%
X186670000Y-127500000D03*
X187630000Y-127500000D03*
%TD*%
%TO.C,C34*%
X194570000Y-125450000D03*
X195530000Y-125450000D03*
%TD*%
%TO.C,C36*%
X192820000Y-122500000D03*
X193780000Y-122500000D03*
%TD*%
%TO.C,C42*%
X189770000Y-124500000D03*
X190730000Y-124500000D03*
%TD*%
%TO.C,C31*%
X193820000Y-128550000D03*
X194780000Y-128550000D03*
%TD*%
%TO.C,C38*%
X192720000Y-119400000D03*
X193680000Y-119400000D03*
%TD*%
%TO.C,C39*%
X189770000Y-127600000D03*
X190730000Y-127600000D03*
%TD*%
%TO.C,C17*%
X192670000Y-120450000D03*
X193630000Y-120450000D03*
%TD*%
%TO.C,C35*%
X186620000Y-130450000D03*
X187580000Y-130450000D03*
%TD*%
M02*
