%TF.GenerationSoftware,KiCad,Pcbnew,8.0.5-8.0.5-0~ubuntu22.04.1*%
%TF.CreationDate,2024-09-18T21:07:54+02:00*%
%TF.ProjectId,ohsim_launchpad,6f687369-6d5f-46c6-9175-6e6368706164,rev?*%
%TF.SameCoordinates,Original*%
%TF.FileFunction,Paste,Top*%
%TF.FilePolarity,Positive*%
%FSLAX46Y46*%
G04 Gerber Fmt 4.6, Leading zero omitted, Abs format (unit mm)*
G04 Created by KiCad (PCBNEW 8.0.5-8.0.5-0~ubuntu22.04.1) date 2024-09-18 21:07:54*
%MOMM*%
%LPD*%
G01*
G04 APERTURE LIST*
G04 Aperture macros list*
%AMRoundRect*
0 Rectangle with rounded corners*
0 $1 Rounding radius*
0 $2 $3 $4 $5 $6 $7 $8 $9 X,Y pos of 4 corners*
0 Add a 4 corners polygon primitive as box body*
4,1,4,$2,$3,$4,$5,$6,$7,$8,$9,$2,$3,0*
0 Add four circle primitives for the rounded corners*
1,1,$1+$1,$2,$3*
1,1,$1+$1,$4,$5*
1,1,$1+$1,$6,$7*
1,1,$1+$1,$8,$9*
0 Add four rect primitives between the rounded corners*
20,1,$1+$1,$2,$3,$4,$5,0*
20,1,$1+$1,$4,$5,$6,$7,0*
20,1,$1+$1,$6,$7,$8,$9,0*
20,1,$1+$1,$8,$9,$2,$3,0*%
G04 Aperture macros list end*
%ADD10RoundRect,0.135000X0.185000X-0.135000X0.185000X0.135000X-0.185000X0.135000X-0.185000X-0.135000X0*%
%ADD11RoundRect,0.218750X0.256250X-0.218750X0.256250X0.218750X-0.256250X0.218750X-0.256250X-0.218750X0*%
%ADD12RoundRect,0.150000X0.150000X-0.512500X0.150000X0.512500X-0.150000X0.512500X-0.150000X-0.512500X0*%
%ADD13RoundRect,0.135000X0.135000X0.185000X-0.135000X0.185000X-0.135000X-0.185000X0.135000X-0.185000X0*%
%ADD14RoundRect,0.135000X-0.185000X0.135000X-0.185000X-0.135000X0.185000X-0.135000X0.185000X0.135000X0*%
%ADD15RoundRect,0.250000X-0.475000X0.250000X-0.475000X-0.250000X0.475000X-0.250000X0.475000X0.250000X0*%
%ADD16RoundRect,0.135000X-0.135000X-0.185000X0.135000X-0.185000X0.135000X0.185000X-0.135000X0.185000X0*%
%ADD17RoundRect,0.250000X-0.325000X-0.650000X0.325000X-0.650000X0.325000X0.650000X-0.325000X0.650000X0*%
%ADD18RoundRect,0.225000X-0.225000X-0.250000X0.225000X-0.250000X0.225000X0.250000X-0.225000X0.250000X0*%
%ADD19RoundRect,0.100000X0.100000X-0.637500X0.100000X0.637500X-0.100000X0.637500X-0.100000X-0.637500X0*%
%ADD20RoundRect,0.140000X0.140000X0.170000X-0.140000X0.170000X-0.140000X-0.170000X0.140000X-0.170000X0*%
%ADD21RoundRect,0.200000X-0.275000X0.200000X-0.275000X-0.200000X0.275000X-0.200000X0.275000X0.200000X0*%
%ADD22RoundRect,0.200000X0.200000X0.275000X-0.200000X0.275000X-0.200000X-0.275000X0.200000X-0.275000X0*%
%ADD23RoundRect,0.100000X-0.637500X-0.100000X0.637500X-0.100000X0.637500X0.100000X-0.637500X0.100000X0*%
%ADD24R,1.400000X1.200000*%
%ADD25RoundRect,0.140000X-0.170000X0.140000X-0.170000X-0.140000X0.170000X-0.140000X0.170000X0.140000X0*%
%ADD26RoundRect,0.225000X-0.250000X0.225000X-0.250000X-0.225000X0.250000X-0.225000X0.250000X0.225000X0*%
%ADD27RoundRect,0.250000X-0.450000X0.262500X-0.450000X-0.262500X0.450000X-0.262500X0.450000X0.262500X0*%
%ADD28R,0.800000X2.700000*%
%ADD29RoundRect,0.140000X-0.140000X-0.170000X0.140000X-0.170000X0.140000X0.170000X-0.140000X0.170000X0*%
%ADD30RoundRect,0.200000X0.200000X0.800000X-0.200000X0.800000X-0.200000X-0.800000X0.200000X-0.800000X0*%
%ADD31RoundRect,0.250000X0.475000X-0.250000X0.475000X0.250000X-0.475000X0.250000X-0.475000X-0.250000X0*%
%ADD32RoundRect,0.225000X0.225000X0.250000X-0.225000X0.250000X-0.225000X-0.250000X0.225000X-0.250000X0*%
%ADD33C,0.400000*%
%ADD34R,1.000000X2.580000*%
%ADD35RoundRect,0.225000X0.250000X-0.225000X0.250000X0.225000X-0.250000X0.225000X-0.250000X-0.225000X0*%
%ADD36RoundRect,0.250000X-0.262500X-0.450000X0.262500X-0.450000X0.262500X0.450000X-0.262500X0.450000X0*%
%ADD37R,1.200000X1.400000*%
%ADD38RoundRect,0.250000X0.435000X0.555000X-0.435000X0.555000X-0.435000X-0.555000X0.435000X-0.555000X0*%
%ADD39RoundRect,0.125000X0.262500X0.125000X-0.262500X0.125000X-0.262500X-0.125000X0.262500X-0.125000X0*%
%ADD40RoundRect,0.250000X-0.250000X-0.475000X0.250000X-0.475000X0.250000X0.475000X-0.250000X0.475000X0*%
%ADD41RoundRect,0.150000X-0.512500X-0.150000X0.512500X-0.150000X0.512500X0.150000X-0.512500X0.150000X0*%
%ADD42RoundRect,0.250000X-0.435000X-0.615000X0.435000X-0.615000X0.435000X0.615000X-0.435000X0.615000X0*%
%ADD43RoundRect,0.125000X-0.250000X-0.125000X0.250000X-0.125000X0.250000X0.125000X-0.250000X0.125000X0*%
%ADD44RoundRect,0.250000X0.250000X0.475000X-0.250000X0.475000X-0.250000X-0.475000X0.250000X-0.475000X0*%
%ADD45RoundRect,0.200000X0.275000X-0.200000X0.275000X0.200000X-0.275000X0.200000X-0.275000X-0.200000X0*%
%ADD46RoundRect,0.100000X0.100000X0.575000X-0.100000X0.575000X-0.100000X-0.575000X0.100000X-0.575000X0*%
%ADD47O,0.900000X1.600000*%
%ADD48RoundRect,0.250000X0.550000X0.450000X-0.550000X0.450000X-0.550000X-0.450000X0.550000X-0.450000X0*%
%ADD49RoundRect,0.250000X0.700000X0.700000X-0.700000X0.700000X-0.700000X-0.700000X0.700000X-0.700000X0*%
%ADD50RoundRect,0.218750X0.218750X0.256250X-0.218750X0.256250X-0.218750X-0.256250X0.218750X-0.256250X0*%
%ADD51RoundRect,0.249999X-0.395001X-0.395001X0.395001X-0.395001X0.395001X0.395001X-0.395001X0.395001X0*%
%ADD52RoundRect,0.050000X-0.387500X-0.050000X0.387500X-0.050000X0.387500X0.050000X-0.387500X0.050000X0*%
%ADD53RoundRect,0.050000X-0.050000X-0.387500X0.050000X-0.387500X0.050000X0.387500X-0.050000X0.387500X0*%
G04 APERTURE END LIST*
D10*
%TO.C,R67*%
X204000000Y-149010000D03*
X204000000Y-147990000D03*
%TD*%
%TO.C,R66*%
X200700000Y-148910000D03*
X200700000Y-147890000D03*
%TD*%
D11*
%TO.C,D5*%
X204000000Y-151987500D03*
X204000000Y-150412500D03*
%TD*%
%TO.C,D4*%
X200700000Y-151987500D03*
X200700000Y-150412500D03*
%TD*%
D12*
%TO.C,U7*%
X182250000Y-102400000D03*
X183200000Y-102400000D03*
X184150000Y-102400000D03*
X184150000Y-100125000D03*
X182250000Y-100125000D03*
%TD*%
D13*
%TO.C,R42*%
X216820000Y-111390000D03*
X215800000Y-111390000D03*
%TD*%
D14*
%TO.C,R7*%
X178150000Y-70000000D03*
X178150000Y-71020000D03*
%TD*%
D15*
%TO.C,C16*%
X185950000Y-134950000D03*
X185950000Y-136850000D03*
%TD*%
D16*
%TO.C,R37*%
X227190000Y-118290000D03*
X228210000Y-118290000D03*
%TD*%
D13*
%TO.C,R59*%
X204800000Y-121600000D03*
X203780000Y-121600000D03*
%TD*%
D17*
%TO.C,C9*%
X186625000Y-108460000D03*
X189575000Y-108460000D03*
%TD*%
D16*
%TO.C,R50*%
X227190000Y-134280000D03*
X228210000Y-134280000D03*
%TD*%
D13*
%TO.C,R5*%
X212820000Y-105100000D03*
X211800000Y-105100000D03*
%TD*%
D18*
%TO.C,C51*%
X187400000Y-83200000D03*
X188950000Y-83200000D03*
%TD*%
D10*
%TO.C,R10*%
X193000000Y-102910000D03*
X193000000Y-101890000D03*
%TD*%
D19*
%TO.C,U13*%
X206214552Y-134125000D03*
X206864552Y-134125000D03*
X207514552Y-134125000D03*
X208164552Y-134125000D03*
X208814552Y-134125000D03*
X209464552Y-134125000D03*
X210114552Y-134125000D03*
X210764552Y-134125000D03*
X210764552Y-128400000D03*
X210114552Y-128400000D03*
X209464552Y-128400000D03*
X208814552Y-128400000D03*
X208164552Y-128400000D03*
X207514552Y-128400000D03*
X206864552Y-128400000D03*
X206214552Y-128400000D03*
%TD*%
D11*
%TO.C,D2*%
X178150000Y-74010000D03*
X178150000Y-72435000D03*
%TD*%
D20*
%TO.C,C57*%
X228180000Y-139110000D03*
X227220000Y-139110000D03*
%TD*%
D21*
%TO.C,R18*%
X208000000Y-93375000D03*
X208000000Y-95025000D03*
%TD*%
D22*
%TO.C,R15*%
X187525000Y-77600000D03*
X185875000Y-77600000D03*
%TD*%
D16*
%TO.C,R44*%
X227190000Y-130210000D03*
X228210000Y-130210000D03*
%TD*%
D23*
%TO.C,U14*%
X219402052Y-135250000D03*
X219402052Y-135900000D03*
X219402052Y-136550000D03*
X219402052Y-137200000D03*
X219402052Y-137850000D03*
X219402052Y-138500000D03*
X219402052Y-139150000D03*
X225127052Y-139150000D03*
X225127052Y-138500000D03*
X225127052Y-137850000D03*
X225127052Y-137200000D03*
X225127052Y-136550000D03*
X225127052Y-135900000D03*
X225127052Y-135250000D03*
%TD*%
D24*
%TO.C,Y1*%
X202700000Y-93100000D03*
X200500000Y-93100000D03*
X200500000Y-94800000D03*
X202700000Y-94800000D03*
%TD*%
D25*
%TO.C,C1*%
X204964552Y-133620000D03*
X204964552Y-134580000D03*
%TD*%
D26*
%TO.C,C50*%
X206300000Y-79925000D03*
X206300000Y-81475000D03*
%TD*%
D27*
%TO.C,R33*%
X202400000Y-140575000D03*
X202400000Y-142400000D03*
%TD*%
D28*
%TO.C,L3*%
X190550000Y-105210000D03*
X188350000Y-105210000D03*
%TD*%
D13*
%TO.C,R58*%
X204810000Y-119600000D03*
X203790000Y-119600000D03*
%TD*%
D14*
%TO.C,R3*%
X191550000Y-134640000D03*
X191550000Y-135660000D03*
%TD*%
D29*
%TO.C,C28*%
X215830000Y-114355000D03*
X216790000Y-114355000D03*
%TD*%
D27*
%TO.C,R34*%
X199900000Y-140587500D03*
X199900000Y-142412500D03*
%TD*%
D30*
%TO.C,SW1*%
X191000000Y-72700000D03*
X186800000Y-72700000D03*
%TD*%
D22*
%TO.C,R20*%
X210875000Y-84150000D03*
X209225000Y-84150000D03*
%TD*%
D31*
%TO.C,C6*%
X192500000Y-106250000D03*
X192500000Y-104350000D03*
%TD*%
D29*
%TO.C,C18*%
X215830000Y-121520000D03*
X216790000Y-121520000D03*
%TD*%
D32*
%TO.C,C53*%
X209275000Y-87900000D03*
X207725000Y-87900000D03*
%TD*%
D25*
%TO.C,C55*%
X204964552Y-124120000D03*
X204964552Y-125080000D03*
%TD*%
D33*
%TO.C,U1*%
X185250000Y-119000000D03*
X186250000Y-119000000D03*
X187250000Y-119000000D03*
X188250000Y-119000000D03*
X189250000Y-119000000D03*
X190250000Y-119000000D03*
X191250000Y-119000000D03*
X192250000Y-119000000D03*
X193250000Y-119000000D03*
X194250000Y-119000000D03*
X195250000Y-119000000D03*
X196250000Y-119000000D03*
X197250000Y-119000000D03*
X198250000Y-119000000D03*
X185250000Y-120000000D03*
X186250000Y-120000000D03*
X187250000Y-120000000D03*
X188250000Y-120000000D03*
X189250000Y-120000000D03*
X190250000Y-120000000D03*
X191250000Y-120000000D03*
X192250000Y-120000000D03*
X193250000Y-120000000D03*
X194250000Y-120000000D03*
X195250000Y-120000000D03*
X196250000Y-120000000D03*
X197250000Y-120000000D03*
X198250000Y-120000000D03*
X185250000Y-121000000D03*
X186250000Y-121000000D03*
X187250000Y-121000000D03*
X188250000Y-121000000D03*
X189250000Y-121000000D03*
X190250000Y-121000000D03*
X191250000Y-121000000D03*
X192250000Y-121000000D03*
X193250000Y-121000000D03*
X194250000Y-121000000D03*
X195250000Y-121000000D03*
X196250000Y-121000000D03*
X197250000Y-121000000D03*
X198250000Y-121000000D03*
X185250000Y-122000000D03*
X186250000Y-122000000D03*
X187250000Y-122000000D03*
X188250000Y-122000000D03*
X189250000Y-122000000D03*
X190250000Y-122000000D03*
X191250000Y-122000000D03*
X192250000Y-122000000D03*
X193250000Y-122000000D03*
X194250000Y-122000000D03*
X195250000Y-122000000D03*
X196250000Y-122000000D03*
X197250000Y-122000000D03*
X198250000Y-122000000D03*
X185250000Y-123000000D03*
X186250000Y-123000000D03*
X187250000Y-123000000D03*
X188250000Y-123000000D03*
X189250000Y-123000000D03*
X190250000Y-123000000D03*
X191250000Y-123000000D03*
X192250000Y-123000000D03*
X193250000Y-123000000D03*
X194250000Y-123000000D03*
X195250000Y-123000000D03*
X196250000Y-123000000D03*
X197250000Y-123000000D03*
X198250000Y-123000000D03*
X185250000Y-124000000D03*
X186250000Y-124000000D03*
X187250000Y-124000000D03*
X188250000Y-124000000D03*
X189250000Y-124000000D03*
X190250000Y-124000000D03*
X191250000Y-124000000D03*
X192250000Y-124000000D03*
X193250000Y-124000000D03*
X194250000Y-124000000D03*
X195250000Y-124000000D03*
X196250000Y-124000000D03*
X197250000Y-124000000D03*
X198250000Y-124000000D03*
X185250000Y-125000000D03*
X186250000Y-125000000D03*
X187250000Y-125000000D03*
X188250000Y-125000000D03*
X189250000Y-125000000D03*
X190250000Y-125000000D03*
X191250000Y-125000000D03*
X192250000Y-125000000D03*
X193250000Y-125000000D03*
X194250000Y-125000000D03*
X195250000Y-125000000D03*
X196250000Y-125000000D03*
X197250000Y-125000000D03*
X198250000Y-125000000D03*
X185250000Y-126000000D03*
X186250000Y-126000000D03*
X187250000Y-126000000D03*
X188250000Y-126000000D03*
X189250000Y-126000000D03*
X190250000Y-126000000D03*
X191250000Y-126000000D03*
X192250000Y-126000000D03*
X193250000Y-126000000D03*
X194250000Y-126000000D03*
X195250000Y-126000000D03*
X196250000Y-126000000D03*
X197250000Y-126000000D03*
X198250000Y-126000000D03*
X185250000Y-127000000D03*
X186250000Y-127000000D03*
X187250000Y-127000000D03*
X188250000Y-127000000D03*
X189250000Y-127000000D03*
X190250000Y-127000000D03*
X191250000Y-127000000D03*
X192250000Y-127000000D03*
X193250000Y-127000000D03*
X194250000Y-127000000D03*
X195250000Y-127000000D03*
X196250000Y-127000000D03*
X197250000Y-127000000D03*
X198250000Y-127000000D03*
X185250000Y-128000000D03*
X186250000Y-128000000D03*
X187250000Y-128000000D03*
X188250000Y-128000000D03*
X189250000Y-128000000D03*
X190250000Y-128000000D03*
X191250000Y-128000000D03*
X192250000Y-128000000D03*
X193250000Y-128000000D03*
X194250000Y-128000000D03*
X195250000Y-128000000D03*
X196250000Y-128000000D03*
X197250000Y-128000000D03*
X198250000Y-128000000D03*
X185250000Y-129000000D03*
X186250000Y-129000000D03*
X187250000Y-129000000D03*
X188250000Y-129000000D03*
X189250000Y-129000000D03*
X190250000Y-129000000D03*
X191250000Y-129000000D03*
X192250000Y-129000000D03*
X193250000Y-129000000D03*
X194250000Y-129000000D03*
X195250000Y-129000000D03*
X196250000Y-129000000D03*
X197250000Y-129000000D03*
X198250000Y-129000000D03*
X185250000Y-130000000D03*
X186250000Y-130000000D03*
X187250000Y-130000000D03*
X188250000Y-130000000D03*
X189250000Y-130000000D03*
X190250000Y-130000000D03*
X191250000Y-130000000D03*
X192250000Y-130000000D03*
X193250000Y-130000000D03*
X194250000Y-130000000D03*
X195250000Y-130000000D03*
X196250000Y-130000000D03*
X197250000Y-130000000D03*
X198250000Y-130000000D03*
X185250000Y-131000000D03*
X186250000Y-131000000D03*
X187250000Y-131000000D03*
X188250000Y-131000000D03*
X189250000Y-131000000D03*
X190250000Y-131000000D03*
X191250000Y-131000000D03*
X192250000Y-131000000D03*
X193250000Y-131000000D03*
X194250000Y-131000000D03*
X195250000Y-131000000D03*
X196250000Y-131000000D03*
X197250000Y-131000000D03*
X198250000Y-131000000D03*
X185250000Y-132000000D03*
X186250000Y-132000000D03*
X187250000Y-132000000D03*
X188250000Y-132000000D03*
X189250000Y-132000000D03*
X190250000Y-132000000D03*
X191250000Y-132000000D03*
X192250000Y-132000000D03*
X193250000Y-132000000D03*
X194250000Y-132000000D03*
X195250000Y-132000000D03*
X196250000Y-132000000D03*
X197250000Y-132000000D03*
X198250000Y-132000000D03*
%TD*%
D26*
%TO.C,C49*%
X200900000Y-78825000D03*
X200900000Y-80375000D03*
%TD*%
D13*
%TO.C,R60*%
X204810000Y-122600000D03*
X203790000Y-122600000D03*
%TD*%
D27*
%TO.C,R24*%
X192400000Y-138787500D03*
X192400000Y-140612500D03*
%TD*%
D34*
%TO.C,J6*%
X195500000Y-178885000D03*
X195500000Y-174715000D03*
X197500000Y-178885000D03*
X197500000Y-174715000D03*
X199500000Y-178885000D03*
X199500000Y-174715000D03*
X201500000Y-178885000D03*
X201500000Y-174715000D03*
X203500000Y-178885000D03*
X203500000Y-174715000D03*
X205500000Y-178885000D03*
X205500000Y-174715000D03*
X207500000Y-178885000D03*
X207500000Y-174715000D03*
%TD*%
D19*
%TO.C,U5*%
X206214552Y-124562500D03*
X206864552Y-124562500D03*
X207514552Y-124562500D03*
X208164552Y-124562500D03*
X208814552Y-124562500D03*
X209464552Y-124562500D03*
X210114552Y-124562500D03*
X210764552Y-124562500D03*
X210764552Y-118837500D03*
X210114552Y-118837500D03*
X209464552Y-118837500D03*
X208814552Y-118837500D03*
X208164552Y-118837500D03*
X207514552Y-118837500D03*
X206864552Y-118837500D03*
X206214552Y-118837500D03*
%TD*%
D25*
%TO.C,C61*%
X202300000Y-114720000D03*
X202300000Y-115680000D03*
%TD*%
D35*
%TO.C,C46*%
X198600000Y-94875000D03*
X198600000Y-93325000D03*
%TD*%
D16*
%TO.C,R43*%
X227190000Y-127170000D03*
X228210000Y-127170000D03*
%TD*%
D13*
%TO.C,R41*%
X216820000Y-115425000D03*
X215800000Y-115425000D03*
%TD*%
D10*
%TO.C,R9*%
X180800000Y-100910000D03*
X180800000Y-99890000D03*
%TD*%
D27*
%TO.C,R30*%
X202400000Y-136875000D03*
X202400000Y-138700000D03*
%TD*%
D14*
%TO.C,R1*%
X194950000Y-136640000D03*
X194950000Y-137660000D03*
%TD*%
D22*
%TO.C,R14*%
X187525000Y-75900000D03*
X185875000Y-75900000D03*
%TD*%
D13*
%TO.C,R6*%
X212810000Y-107600000D03*
X211790000Y-107600000D03*
%TD*%
D27*
%TO.C,R31*%
X199900000Y-136875000D03*
X199900000Y-138700000D03*
%TD*%
D14*
%TO.C,R55*%
X195200000Y-184780000D03*
X195200000Y-185800000D03*
%TD*%
D25*
%TO.C,C60*%
X207500000Y-114720000D03*
X207500000Y-115680000D03*
%TD*%
D14*
%TO.C,R57*%
X197400000Y-184780000D03*
X197400000Y-185800000D03*
%TD*%
D18*
%TO.C,C52*%
X195625000Y-87900000D03*
X197175000Y-87900000D03*
%TD*%
D36*
%TO.C,R22*%
X199575000Y-105100000D03*
X201400000Y-105100000D03*
%TD*%
D10*
%TO.C,R12*%
X187050000Y-102820000D03*
X187050000Y-101800000D03*
%TD*%
D37*
%TO.C,X1*%
X178150000Y-123150000D03*
X178150000Y-125350000D03*
X179850000Y-125350000D03*
X179850000Y-123150000D03*
%TD*%
D29*
%TO.C,C33*%
X215830000Y-130200000D03*
X216790000Y-130200000D03*
%TD*%
D38*
%TO.C,U2*%
X208700000Y-106700000D03*
X208700000Y-104700000D03*
X207000000Y-106700000D03*
X207000000Y-104700000D03*
D39*
X210512500Y-107605000D03*
X210512500Y-106335000D03*
X210512500Y-105065000D03*
X210512500Y-103795000D03*
X205187500Y-103795000D03*
X205187500Y-105065000D03*
X205187500Y-106335000D03*
X205187500Y-107605000D03*
%TD*%
D16*
%TO.C,R40*%
X227190000Y-110360000D03*
X228210000Y-110360000D03*
%TD*%
D14*
%TO.C,R52*%
X191800000Y-184790000D03*
X191800000Y-185810000D03*
%TD*%
%TO.C,R54*%
X194100000Y-184780000D03*
X194100000Y-185800000D03*
%TD*%
D40*
%TO.C,C12*%
X201300000Y-124850000D03*
X203200000Y-124850000D03*
%TD*%
D20*
%TO.C,C58*%
X228180000Y-135330000D03*
X227220000Y-135330000D03*
%TD*%
D27*
%TO.C,R26*%
X187940000Y-138787500D03*
X187940000Y-140612500D03*
%TD*%
D41*
%TO.C,U16*%
X203762500Y-114750000D03*
X203762500Y-115700000D03*
X203762500Y-116650000D03*
X206037500Y-116650000D03*
X206037500Y-114750000D03*
%TD*%
D21*
%TO.C,R16*%
X203100000Y-79850000D03*
X203100000Y-81500000D03*
%TD*%
D28*
%TO.C,L1*%
X184300000Y-105300000D03*
X182100000Y-105300000D03*
%TD*%
D14*
%TO.C,R56*%
X196300000Y-184780000D03*
X196300000Y-185800000D03*
%TD*%
D23*
%TO.C,U12*%
X219402052Y-127050000D03*
X219402052Y-127700000D03*
X219402052Y-128350000D03*
X219402052Y-129000000D03*
X219402052Y-129650000D03*
X219402052Y-130300000D03*
X219402052Y-130950000D03*
X225127052Y-130950000D03*
X225127052Y-130300000D03*
X225127052Y-129650000D03*
X225127052Y-129000000D03*
X225127052Y-128350000D03*
X225127052Y-127700000D03*
X225127052Y-127050000D03*
%TD*%
D29*
%TO.C,C29*%
X215830000Y-110340000D03*
X216790000Y-110340000D03*
%TD*%
D42*
%TO.C,U10*%
X192900000Y-76750000D03*
X192900000Y-78900000D03*
X194600000Y-76750000D03*
X194600000Y-78900000D03*
D43*
X191050000Y-75920000D03*
X191050000Y-77190000D03*
X191050000Y-78460000D03*
X191050000Y-79730000D03*
X196450000Y-79730000D03*
X196450000Y-78460000D03*
X196450000Y-77190000D03*
X196450000Y-75920000D03*
%TD*%
D26*
%TO.C,C54*%
X207900000Y-79925000D03*
X207900000Y-81475000D03*
%TD*%
D44*
%TO.C,C2*%
X184200000Y-98100000D03*
X182300000Y-98100000D03*
%TD*%
D20*
%TO.C,C25*%
X228180000Y-115400000D03*
X227220000Y-115400000D03*
%TD*%
D44*
%TO.C,C26*%
X184900000Y-111100000D03*
X183000000Y-111100000D03*
%TD*%
D18*
%TO.C,C48*%
X198125000Y-75900000D03*
X199675000Y-75900000D03*
%TD*%
D12*
%TO.C,U9*%
X188450000Y-102310000D03*
X189400000Y-102310000D03*
X190350000Y-102310000D03*
X190350000Y-100035000D03*
X188450000Y-100035000D03*
%TD*%
D44*
%TO.C,C10*%
X182000000Y-130100000D03*
X180100000Y-130100000D03*
%TD*%
D16*
%TO.C,R38*%
X227190000Y-121565000D03*
X228210000Y-121565000D03*
%TD*%
D14*
%TO.C,R51*%
X190700000Y-184790000D03*
X190700000Y-185810000D03*
%TD*%
D13*
%TO.C,R47*%
X216820000Y-135300000D03*
X215800000Y-135300000D03*
%TD*%
D23*
%TO.C,U6*%
X219402052Y-118850000D03*
X219402052Y-119500000D03*
X219402052Y-120150000D03*
X219402052Y-120800000D03*
X219402052Y-121450000D03*
X219402052Y-122100000D03*
X219402052Y-122750000D03*
X225127052Y-122750000D03*
X225127052Y-122100000D03*
X225127052Y-121450000D03*
X225127052Y-120800000D03*
X225127052Y-120150000D03*
X225127052Y-119500000D03*
X225127052Y-118850000D03*
%TD*%
D29*
%TO.C,C40*%
X215830000Y-134290000D03*
X216790000Y-134290000D03*
%TD*%
D40*
%TO.C,C14*%
X192250000Y-108450000D03*
X194150000Y-108450000D03*
%TD*%
D45*
%TO.C,R19*%
X204750000Y-95025000D03*
X204750000Y-93375000D03*
%TD*%
D13*
%TO.C,R61*%
X204810000Y-120600000D03*
X203790000Y-120600000D03*
%TD*%
D20*
%TO.C,C32*%
X228180000Y-131210000D03*
X227220000Y-131210000D03*
%TD*%
D10*
%TO.C,R8*%
X180800000Y-102910000D03*
X180800000Y-101890000D03*
%TD*%
D44*
%TO.C,C3*%
X196350000Y-98100000D03*
X194450000Y-98100000D03*
%TD*%
D36*
%TO.C,R28*%
X210587500Y-111800000D03*
X212412500Y-111800000D03*
%TD*%
D14*
%TO.C,R53*%
X192950000Y-184790000D03*
X192950000Y-185810000D03*
%TD*%
D36*
%TO.C,R27*%
X199575000Y-103000000D03*
X201400000Y-103000000D03*
%TD*%
D13*
%TO.C,R62*%
X204410000Y-129200000D03*
X203390000Y-129200000D03*
%TD*%
D27*
%TO.C,R25*%
X185800000Y-138787500D03*
X185800000Y-140612500D03*
%TD*%
D44*
%TO.C,C4*%
X190350000Y-98010000D03*
X188450000Y-98010000D03*
%TD*%
D12*
%TO.C,U8*%
X194425000Y-102400000D03*
X195375000Y-102400000D03*
X196325000Y-102400000D03*
X196325000Y-100125000D03*
X194425000Y-100125000D03*
%TD*%
D46*
%TO.C,J1*%
X199300000Y-64200000D03*
X198650000Y-64200000D03*
X198000000Y-64200000D03*
X197350000Y-64200000D03*
X196700000Y-64200000D03*
D47*
X201300000Y-61525000D03*
D48*
X201200000Y-63975000D03*
D49*
X199200000Y-61525000D03*
X196800000Y-61525000D03*
D48*
X194800000Y-63975000D03*
D47*
X194700000Y-61525000D03*
%TD*%
D13*
%TO.C,R64*%
X204410000Y-132200000D03*
X203390000Y-132200000D03*
%TD*%
D20*
%TO.C,C23*%
X228180000Y-119340000D03*
X227220000Y-119340000D03*
%TD*%
%TO.C,C30*%
X228180000Y-126050000D03*
X227220000Y-126050000D03*
%TD*%
D13*
%TO.C,R63*%
X204420000Y-131200000D03*
X203400000Y-131200000D03*
%TD*%
D27*
%TO.C,R23*%
X190100000Y-138787500D03*
X190100000Y-140612500D03*
%TD*%
D13*
%TO.C,R48*%
X216820000Y-139095000D03*
X215800000Y-139095000D03*
%TD*%
D32*
%TO.C,C45*%
X201075000Y-66700000D03*
X199525000Y-66700000D03*
%TD*%
D10*
%TO.C,R13*%
X187050000Y-100820000D03*
X187050000Y-99800000D03*
%TD*%
D13*
%TO.C,R45*%
X216820000Y-131200000D03*
X215800000Y-131200000D03*
%TD*%
D10*
%TO.C,R2*%
X194950000Y-135660000D03*
X194950000Y-134640000D03*
%TD*%
D26*
%TO.C,C47*%
X206400000Y-93425000D03*
X206400000Y-94975000D03*
%TD*%
D16*
%TO.C,R4*%
X202890000Y-106300000D03*
X203910000Y-106300000D03*
%TD*%
D44*
%TO.C,C20*%
X182000000Y-132200000D03*
X180100000Y-132200000D03*
%TD*%
D27*
%TO.C,R29*%
X204800000Y-136862500D03*
X204800000Y-138687500D03*
%TD*%
D17*
%TO.C,C15*%
X186625000Y-110910000D03*
X189575000Y-110910000D03*
%TD*%
D13*
%TO.C,R36*%
X216820000Y-122590000D03*
X215800000Y-122590000D03*
%TD*%
D21*
%TO.C,R17*%
X204700000Y-79875000D03*
X204700000Y-81525000D03*
%TD*%
D29*
%TO.C,C37*%
X215830000Y-126100000D03*
X216790000Y-126100000D03*
%TD*%
D10*
%TO.C,R11*%
X193000000Y-100910000D03*
X193000000Y-99890000D03*
%TD*%
D16*
%TO.C,R49*%
X227190000Y-138110000D03*
X228210000Y-138110000D03*
%TD*%
D27*
%TO.C,R32*%
X204800000Y-140575000D03*
X204800000Y-142400000D03*
%TD*%
D31*
%TO.C,C7*%
X186600000Y-106160000D03*
X186600000Y-104260000D03*
%TD*%
D25*
%TO.C,C59*%
X202300000Y-116620000D03*
X202300000Y-117580000D03*
%TD*%
D23*
%TO.C,U4*%
X219402052Y-110650000D03*
X219402052Y-111300000D03*
X219402052Y-111950000D03*
X219402052Y-112600000D03*
X219402052Y-113250000D03*
X219402052Y-113900000D03*
X219402052Y-114550000D03*
X225127052Y-114550000D03*
X225127052Y-113900000D03*
X225127052Y-113250000D03*
X225127052Y-112600000D03*
X225127052Y-111950000D03*
X225127052Y-111300000D03*
X225127052Y-110650000D03*
%TD*%
D20*
%TO.C,C24*%
X228180000Y-122565000D03*
X227220000Y-122565000D03*
%TD*%
D50*
%TO.C,D3*%
X210837500Y-85850000D03*
X209262500Y-85850000D03*
%TD*%
D11*
%TO.C,D1*%
X197600000Y-150412500D03*
X197600000Y-151987500D03*
%TD*%
D51*
%TO.C,U11*%
X201760000Y-86070000D03*
X201760000Y-87670000D03*
X203360000Y-86070000D03*
X203360000Y-87670000D03*
D52*
X199122500Y-84270000D03*
X199122500Y-84670000D03*
X199122500Y-85070000D03*
X199122500Y-85470000D03*
X199122500Y-85870000D03*
X199122500Y-86270000D03*
X199122500Y-86670000D03*
X199122500Y-87070000D03*
X199122500Y-87470000D03*
X199122500Y-87870000D03*
X199122500Y-88270000D03*
X199122500Y-88670000D03*
X199122500Y-89070000D03*
X199122500Y-89470000D03*
D53*
X199960000Y-90307500D03*
X200360000Y-90307500D03*
X200760000Y-90307500D03*
X201160000Y-90307500D03*
X201560000Y-90307500D03*
X201960000Y-90307500D03*
X202360000Y-90307500D03*
X202760000Y-90307500D03*
X203160000Y-90307500D03*
X203560000Y-90307500D03*
X203960000Y-90307500D03*
X204360000Y-90307500D03*
X204760000Y-90307500D03*
X205160000Y-90307500D03*
D52*
X205997500Y-89470000D03*
X205997500Y-89070000D03*
X205997500Y-88670000D03*
X205997500Y-88270000D03*
X205997500Y-87870000D03*
X205997500Y-87470000D03*
X205997500Y-87070000D03*
X205997500Y-86670000D03*
X205997500Y-86270000D03*
X205997500Y-85870000D03*
X205997500Y-85470000D03*
X205997500Y-85070000D03*
X205997500Y-84670000D03*
X205997500Y-84270000D03*
D53*
X205160000Y-83432500D03*
X204760000Y-83432500D03*
X204360000Y-83432500D03*
X203960000Y-83432500D03*
X203560000Y-83432500D03*
X203160000Y-83432500D03*
X202760000Y-83432500D03*
X202360000Y-83432500D03*
X201960000Y-83432500D03*
X201560000Y-83432500D03*
X201160000Y-83432500D03*
X200760000Y-83432500D03*
X200360000Y-83432500D03*
X199960000Y-83432500D03*
%TD*%
D20*
%TO.C,C27*%
X228180000Y-111390000D03*
X227220000Y-111390000D03*
%TD*%
D31*
%TO.C,C5*%
X180200000Y-106250000D03*
X180200000Y-104350000D03*
%TD*%
D13*
%TO.C,R65*%
X204410000Y-130200000D03*
X203390000Y-130200000D03*
%TD*%
D36*
%TO.C,R21*%
X210587500Y-109650000D03*
X212412500Y-109650000D03*
%TD*%
D29*
%TO.C,C56*%
X215830000Y-138105000D03*
X216790000Y-138105000D03*
%TD*%
D13*
%TO.C,R46*%
X216820000Y-127100000D03*
X215800000Y-127100000D03*
%TD*%
D16*
%TO.C,R39*%
X227190000Y-114400000D03*
X228210000Y-114400000D03*
%TD*%
D28*
%TO.C,L2*%
X196400000Y-105300000D03*
X194200000Y-105300000D03*
%TD*%
D29*
%TO.C,C8*%
X215830000Y-119310000D03*
X216790000Y-119310000D03*
%TD*%
D13*
%TO.C,R35*%
X216820000Y-118300000D03*
X215800000Y-118300000D03*
%TD*%
M02*
